<?xml version="1.0" encoding="UTF-8" standalone="no"?>
<!-- Created with Inkscape (http://www.inkscape.org/) -->

<svg
   xmlns:dc="http://purl.org/dc/elements/1.1/"
   xmlns:cc="http://creativecommons.org/ns#"
   xmlns:rdf="http://www.w3.org/1999/02/22-rdf-syntax-ns#"
   xmlns:svg="http://www.w3.org/2000/svg"
   xmlns="http://www.w3.org/2000/svg"
   xmlns:sodipodi="http://sodipodi.sourceforge.net/DTD/sodipodi-0.dtd"
   xmlns:inkscape="http://www.inkscape.org/namespaces/inkscape"
   width="210mm"
   height="297mm"
   viewBox="0 0 210 297"
   version="1.1"
   id="svg8"
   inkscape:version="0.92.3 (2405546, 2018-03-11)"
   sodipodi:docname="icon.svg">
  <defs
     id="defs2" />
  <sodipodi:namedview
     id="base"
     pagecolor="#ffffff"
     bordercolor="#666666"
     borderopacity="1.0"
     inkscape:pageopacity="0.0"
     inkscape:pageshadow="2"
     inkscape:zoom="0.35"
     inkscape:cx="400"
     inkscape:cy="560"
     inkscape:document-units="mm"
     inkscape:current-layer="layer1"
     showgrid="false"
     inkscape:window-width="1920"
     inkscape:window-height="963"
     inkscape:window-x="0"
     inkscape:window-y="27"
     inkscape:window-maximized="1" />
  <metadata
     id="metadata5">
    <rdf:RDF>
      <cc:Work
         rdf:about="">
        <dc:format>image/svg+xml</dc:format>
        <dc:type
           rdf:resource="http://purl.org/dc/dcmitype/StillImage" />
        <dc:title />
      </cc:Work>
    </rdf:RDF>
  </metadata>
  <g
     inkscape:label="Layer 1"
     inkscape:groupmode="layer"
     id="layer1">
    <g
       id="g75"
       transform="translate(-136.07142,-82.398809)">
      <path
         style="fill:#fefefe;stroke-width:0.35277778"
         d="m 150.83769,228.20833 v -90.31111 h 90.31111 90.31111 v 90.31111 90.31111 H 241.1488 150.83769 Z"
         id="path95"
         inkscape:connector-curvature="0" />
      <path
         style="fill:#fdcfcf;stroke-width:0.35277778"
         d="m 150.83769,228.20833 v -90.31111 h 90.31111 90.31111 v 90.31111 90.31111 H 241.1488 150.83769 Z m 178.32916,0 V 140.19028 H 241.1488 153.13075 l -0.0784,38.45277 c -0.0716,35.12801 0.10333,43.106 0.74879,34.15203 0.12855,-1.78332 0.38445,-3.68832 0.56866,-4.23333 0.18421,-0.54501 0.561,-2.41967 0.83732,-4.16592 0.27631,-1.74625 0.662,-3.73062 0.8571,-4.40972 0.19509,-0.6791 0.69616,-2.50472 1.11349,-4.05695 1.22044,-4.53941 2.67683,-8.97677 3.8788,-11.81805 0.61561,-1.45521 1.25083,-3.04271 1.4116,-3.52778 0.78379,-2.36475 5.24203,-10.98432 7.53669,-14.57145 0.71168,-1.11254 1.29397,-2.08787 1.29397,-2.1674 0,-0.14681 1.99963,-3.12182 3.78293,-5.62818 1.8711,-2.62976 1.80289,-2.65332 6.48212,2.23915 2.80093,2.92857 4.19884,4.65265 4.19884,5.17853 0,0.43359 -0.61121,1.71239 -1.35824,2.84177 -3.2546,4.9204 -7.81398,12.84377 -7.81398,13.57927 0,0.27713 -0.17684,0.6807 -0.39297,0.89684 -1.06331,1.0633 -5.76251,13.95227 -6.72501,18.44536 -0.18704,0.87312 -0.56398,2.30187 -0.83764,3.175 -0.27366,0.87312 -0.72974,3.33375 -1.01352,5.46805 -0.28377,2.13431 -0.67176,4.59494 -0.86219,5.46806 -0.9571,4.38831 -0.77486,22.40618 0.27117,26.81111 0.20734,0.87313 0.61171,3.25438 0.8986,5.29167 0.28688,2.03729 0.77167,4.65666 1.0773,5.82083 1.15727,4.40807 3.02951,10.33846 3.9215,12.42143 0.31487,0.73529 0.96591,2.2894 1.44674,3.45357 2.7794,6.72932 4.95293,10.77284 9.50274,17.67842 1.03703,1.57396 1.8855,3.21872 1.8855,3.65502 0,0.52634 -1.37983,2.264 -4.10056,5.16395 -2.25531,2.40386 -4.2469,4.37067 -4.42576,4.37067 -1.7596,0 -11.83249,-16.99227 -15.47519,-26.10556 -0.42655,-1.06715 -1.06667,-2.65465 -1.42249,-3.52778 -0.55184,-1.35416 -2.17763,-6.57989 -2.96334,-9.525 -0.12941,-0.48507 -0.36957,-1.35819 -0.53369,-1.94027 -1.08575,-3.85091 -1.40065,-5.23774 -1.73071,-7.62198 -0.20429,-1.4757 -0.52696,-3.09216 -0.71705,-3.59214 -0.19009,-0.49998 -0.45603,-2.51214 -0.59098,-4.47147 -0.13495,-1.95933 -0.38108,-3.6463 -0.54696,-3.74882 -0.3516,-0.2173 -0.41721,76.17482 -0.0657,76.52631 0.12973,0.12973 39.77754,0.19588 88.10625,0.14698 l 87.87036,-0.0889 z m -29.93021,67.85779 c -2.26206,-2.45391 -4.11284,-4.65959 -4.11284,-4.90151 0,-0.24192 0.83405,-1.68699 1.85344,-3.21127 4.47173,-6.68646 9.96028,-17.3059 11.00466,-21.29223 0.12709,-0.48507 0.52583,-1.59632 0.8861,-2.46945 0.78037,-1.89122 2.26278,-6.59804 2.7777,-8.81944 0.20239,-0.87313 0.46945,-1.98438 0.59347,-2.46945 2.09554,-8.19608 3.13142,-18.6783 2.80643,-28.39861 -0.11678,-3.4925 -0.3678,-6.90562 -0.55784,-7.58472 -0.19004,-0.6791 -0.56808,-2.9016 -0.84008,-4.93889 -0.57977,-4.34244 -1.08607,-6.77441 -2.4236,-11.64166 -1.0055,-3.65897 -1.90577,-6.52738 -2.43588,-7.76112 -0.2918,-0.67909 -0.88855,-2.18722 -1.32612,-3.35138 -2.12143,-5.64413 -6.23146,-13.41851 -10.48045,-19.82444 -1.25832,-1.8971 -1.84646,-3.11 -1.71063,-3.52778 0.11385,-0.35017 2.09346,-2.62105 4.39912,-5.04639 l 4.19211,-4.40973 0.9576,0.88195 c 3.15543,2.90615 11.44287,17.49897 14.84603,26.14142 3.51601,8.92902 5.62798,16.68228 7.24545,26.59885 1.51229,9.27178 1.49392,28.32792 -0.036,37.39445 -0.33418,1.98032 -0.48014,2.77657 -1.36691,7.4569 -0.18887,0.99685 -0.52681,2.4256 -0.75098,3.175 -0.22417,0.7494 -0.70669,2.55317 -1.07226,4.00838 -2.42421,9.64992 -8.92645,23.73916 -15.38538,33.3375 -0.65283,0.97013 -1.45392,2.16076 -1.7802,2.64583 -1.07616,1.5999 -1.9853,2.46944 -2.58188,2.46944 -0.32349,0 -2.43894,-2.00774 -4.70101,-4.46165 z m -17.75163,-19.0296 c -2.29707,-2.44269 -4.22756,-4.74718 -4.28998,-5.1211 -0.0624,-0.37392 0.54361,-1.66387 1.34673,-2.86655 3.43439,-5.14305 7.6038,-15.47819 9.50234,-23.55443 2.69734,-11.47427 2.41912,-26.28453 -0.68261,-36.33611 -0.14968,-0.48507 -0.55024,-1.91382 -0.89011,-3.175 -0.33988,-1.26118 -0.91338,-2.93849 -1.27444,-3.72735 -0.36106,-0.78886 -0.65647,-1.6081 -0.65647,-1.82051 0,-0.5433 -3.5757,-8.20321 -4.32222,-9.25911 -0.33917,-0.47973 -0.61667,-0.9973 -0.61667,-1.15014 0,-0.15285 -0.55563,-1.0684 -1.23472,-2.03456 -0.6791,-0.96616 -1.23473,-2.04603 -1.23473,-2.39971 0,-0.98481 7.96083,-9.41834 8.89044,-9.41834 1.37892,0 5.68453,7.12878 9.77182,16.17919 0.60131,1.33147 1.0933,2.60759 1.0933,2.83582 0,0.22824 0.3028,1.0089 0.67289,1.73482 0.3701,0.72591 0.86765,2.14854 1.10568,3.16139 0.23802,1.01286 0.63285,2.23843 0.87738,2.7235 0.24454,0.48507 0.61357,1.83444 0.82007,2.99861 0.71349,4.02227 1.52463,8.11834 1.85131,9.34861 1.00448,3.78289 0.99183,22.32874 -0.0185,27.16389 -0.18245,0.87313 -0.59238,2.8575 -0.91097,4.40972 -1.09833,5.35132 -1.51354,7.06006 -2.05739,8.46667 -0.30008,0.77611 -0.55256,1.71818 -0.56108,2.09348 -0.008,0.3753 -0.30734,1.3278 -0.66406,2.11667 -0.35673,0.78886 -1.2632,3.02179 -2.01438,4.96207 -2.63859,6.81539 -8.69924,17.10972 -10.07312,17.10972 -0.1397,0 -2.13342,-1.99856 -4.43049,-4.44125 z m -88.22137,2.2888 c -0.53601,-0.79579 -1.23769,-1.91801 -1.55929,-2.4938 -0.3216,-0.5758 -0.81628,-1.31376 -1.0993,-1.63991 -0.43464,-0.5009 -3.0991,-5.84055 -5.57693,-11.17634 -0.74533,-1.60501 -3.45413,-9.60113 -3.88402,-11.46527 -0.15661,-0.6791 -0.62008,-2.66348 -1.02994,-4.40973 -1.24243,-5.29355 -1.72319,-10.74645 -1.74176,-19.75555 -0.0186,-9.0369 0.39815,-15.23964 1.19706,-17.81528 0.27082,-0.87312 0.59464,-2.38125 0.71958,-3.35139 0.21519,-1.67082 0.64691,-3.36339 1.25975,-4.93889 0.15095,-0.38805 0.3533,-1.02305 0.44967,-1.41111 0.0964,-0.38805 0.73681,-2.32179 1.42319,-4.29719 2.26559,-6.52033 5.81113,-13.64106 9.41763,-18.91403 1.94148,-2.83858 2.32231,-2.73696 6.50535,1.73591 1.94028,2.07472 3.79978,4.17854 4.13221,4.67516 0.58287,0.87073 0.57181,0.96 -0.30976,2.50155 -5.67739,9.92767 -8.83296,17.83491 -10.21128,25.58749 -0.27596,1.55222 -0.67353,3.5366 -0.88349,4.40972 -0.9178,3.81692 -1.023,21.14261 -0.13706,22.57608 0.12814,0.20734 0.45801,1.87486 0.73303,3.70559 0.27502,1.83074 0.82733,4.40536 1.22736,5.72139 0.40002,1.31603 0.88554,2.9484 1.07893,3.6275 0.86557,3.03942 5.0179,12.1783 6.96087,15.32021 2.37755,3.84465 2.37269,3.805 0.70459,5.75036 -3.27807,3.82297 -7.06317,7.50443 -7.71567,7.50443 -0.40975,0 -1.07874,-0.58286 -1.66072,-1.4469 z M 264.4584,258.8118 c -5.98971,-6.31461 -5.91161,-6.15774 -4.4849,-9.00756 2.91546,-5.82359 4.45849,-13.12135 4.45857,-21.08689 9e-5,-8.13661 -1.30554,-14.38956 -4.37862,-20.97013 -0.49835,-1.06715 -0.90764,-2.29991 -0.90954,-2.73945 -0.004,-1.01186 7.89727,-9.60777 8.83176,-9.60777 0.88231,0 1.71875,1.28797 3.78019,5.82083 2.61754,5.75568 3.73051,8.90423 4.61398,13.05278 0.2066,0.97014 0.5817,2.71639 0.83355,3.88055 0.63233,2.92289 0.6264,17.93213 -0.008,20.81389 -2.02379,9.18989 -3.22399,12.80019 -6.1429,18.4783 -1.98416,3.85977 -2.50477,4.61022 -3.20727,4.62325 -0.16022,0.003 -1.68419,-1.46304 -3.3866,-3.2578 z m -52.51182,1.75908 c -0.41262,-0.43921 -0.99828,-1.35203 -1.30148,-2.02848 -0.3032,-0.67644 -0.69795,-1.46803 -0.87723,-1.75907 -1.45983,-2.36985 -3.61261,-8.42406 -4.98811,-14.02795 -0.99155,-4.03962 -1.12141,-5.20468 -1.28725,-11.54844 -0.19249,-7.36335 0.25608,-14.27634 1.11021,-17.10972 0.26321,-0.87313 0.75528,-2.61938 1.09349,-3.88056 1.49176,-5.56263 5.55371,-14.46092 6.93987,-15.20277 0.74097,-0.39656 1.07801,-0.12475 5.11603,4.12593 2.37754,2.50275 4.32818,4.80852 4.33475,5.12392 0.007,0.3154 -0.4067,1.50603 -0.91836,2.64583 -1.68771,3.75958 -2.96823,7.66446 -3.74527,11.42098 -1.01872,4.92491 -1.08239,14.44296 -0.12862,19.22639 0.75124,3.76764 2.3837,8.73786 3.79143,11.54341 0.55702,1.11013 1.01276,2.32821 1.01276,2.70685 0,0.86241 -8.02724,9.56224 -8.82298,9.56224 -0.31847,0 -0.91663,-0.35935 -1.32924,-0.79856 z m 14.24691,-14.22335 c -0.11778,-0.30691 -0.21413,-8.46309 -0.21413,-18.12486 0,-15.1322 0.0728,-17.6273 0.52563,-18.00308 0.43493,-0.36096 2.67224,0.69364 12.96459,6.11111 22.27077,11.72241 21.61116,11.35417 21.61116,12.06497 0,0.49571 -1.7396,1.57814 -7.05555,4.39018 -3.88056,2.05274 -11.47189,6.06943 -16.86963,8.92598 -5.39774,2.85655 -10.02419,5.19372 -10.28101,5.19372 -0.25681,0 -0.56329,-0.25111 -0.68106,-0.55802 z"
         id="path93"
         inkscape:connector-curvature="0" />
      <path
         style="fill:#a5b2fd;stroke-width:0.35277778"
         d="m 150.83769,228.20833 v -90.31111 h 90.31111 90.31111 v 90.31111 90.31111 H 241.1488 150.83769 Z m 178.32916,0 V 140.19028 H 241.1488 153.13075 l -0.0642,43.21527 c -0.0362,24.42612 0.068,42.90852 0.23979,42.50972 0.16716,-0.38805 0.31509,-2.34511 0.32873,-4.34901 0.0324,-4.75683 0.6625,-11.76935 1.25759,-13.99543 0.25935,-0.97014 0.57057,-2.63701 0.6916,-3.70417 0.12103,-1.06715 0.5214,-2.97215 0.88971,-4.23333 0.36831,-1.26118 1.26206,-4.35681 1.98612,-6.87917 1.3097,-4.56251 4.6479,-13.40188 5.62415,-14.89245 0.28145,-0.42973 0.51173,-0.94026 0.51173,-1.13451 0,-0.19425 1.24819,-2.62077 2.77376,-5.39227 4.41648,-8.02345 8.85633,-14.74049 9.74321,-14.74049 0.74176,0 8.29692,8.29324 8.29692,9.10745 0,0.39915 -0.67708,1.72795 -1.50462,2.95289 -2.15486,3.18965 -5.25461,8.44722 -7.03282,11.92855 -4.47432,8.75971 -8.58326,21.66036 -9.65774,30.32201 -0.2779,2.24015 -0.69396,4.62881 -0.92459,5.30813 -0.68855,2.02812 -0.57761,21.39566 0.14045,24.51847 0.3123,1.3582 0.67351,3.5807 0.8027,4.93889 0.39391,4.1416 3.30713,15.26192 5.17541,19.75556 0.40334,0.97013 1.12797,2.71638 1.61028,3.88055 2.74508,6.62583 5.59524,11.919 10.03367,18.63397 0.7465,1.12939 1.35726,2.36157 1.35726,2.73819 0,0.63379 -6.81723,8.25511 -7.95241,8.89039 -1.09019,0.6101 -7.03185,-8.4278 -11.68498,-17.7741 -1.58424,-3.18212 -3.19284,-6.57942 -3.57466,-7.54956 -0.38182,-0.97014 -1.02848,-2.55764 -1.43701,-3.52778 -0.40854,-0.97014 -1.38636,-3.98639 -2.17294,-6.70278 -0.78657,-2.71638 -1.66359,-5.73263 -1.94893,-6.70277 -0.48894,-1.66235 -1.61688,-7.50877 -2.28004,-11.81806 -0.16422,-1.06715 -0.41201,-4.7184 -0.55064,-8.11389 -0.13864,-3.39548 -0.37742,-6.49111 -0.53064,-6.87916 -0.15322,-0.38806 -0.28864,18.67517 -0.30094,42.36273 -0.0123,23.68756 0.0838,43.17443 0.21352,43.30417 0.12973,0.12973 39.77754,0.19588 88.10625,0.14698 l 87.87036,-0.0889 z m -28.15081,69.23264 c -4.21602,-4.43745 -5.53946,-5.96377 -5.53946,-6.38864 0,-0.22039 0.54034,-1.15513 1.20077,-2.07721 2.62561,-3.66587 6.02564,-9.63298 8.47106,-14.86686 1.41514,-3.02878 2.69263,-5.90375 2.83886,-6.38882 0.14623,-0.48507 0.62489,-1.83444 1.06369,-2.99861 1.0572,-2.80478 2.48006,-7.33518 2.99152,-9.525 0.22659,-0.97014 0.55068,-2.31951 0.72021,-2.99861 1.12978,-4.52573 1.48254,-6.88107 2.19267,-14.64028 0.84789,-9.26435 0.13116,-21.53249 -1.80336,-30.86805 -0.62281,-3.00555 -2.03236,-8.29158 -2.39878,-8.99584 -0.20191,-0.38805 -0.4778,-1.31807 -0.61309,-2.0667 -0.13529,-0.74862 -0.53563,-2.01862 -0.88964,-2.82222 -0.35402,-0.80359 -1.00038,-2.41358 -1.43636,-3.57774 -2.12712,-5.67993 -6.0615,-13.13122 -10.45206,-19.79509 -1.03702,-1.57396 -1.88549,-3.04315 -1.88549,-3.26487 0,-0.67385 7.80792,-8.86643 8.45013,-8.86643 1.01627,0 2.56639,2.09822 6.90026,9.34008 2.81902,4.71056 6.77238,12.3303 7.69177,14.8252 0.28601,0.77611 0.87198,2.28423 1.30216,3.35138 2.72731,6.76572 5.12361,15.44891 6.32813,22.93056 0.23429,1.45521 0.57263,3.28083 0.75187,4.05694 0.65201,2.82324 1.02011,16.50052 0.66151,24.57966 -0.19227,4.33175 -0.44234,8.11402 -0.55571,8.40507 -0.11337,0.29104 -0.33462,1.40229 -0.49165,2.46944 -0.78588,5.34074 -1.16661,7.25524 -2.31511,11.64167 -3.02509,11.55358 -6.5516,20.05292 -12.80765,30.86805 -3.48012,6.01625 -6.64583,10.40695 -7.50346,10.40695 -0.15135,0 -1.44411,-1.23032 -2.87279,-2.73403 z m -19.09088,-20.37292 c -2.24441,-2.32833 -4.17157,-4.56157 -4.28259,-4.96274 -0.13489,-0.48744 0.21961,-1.36516 1.06862,-2.64583 1.65935,-2.50305 5.34547,-10.06516 6.43617,-13.20387 1.63413,-4.70257 2.64761,-8.12589 3.13362,-10.58478 0.26846,-1.35819 0.66008,-3.34257 0.87027,-4.40972 0.3493,-1.77346 1.05417,-9.99123 1.07419,-12.52361 0.0396,-5.01596 -1.39325,-16.28372 -2.48985,-19.57917 -0.16141,-0.48507 -0.57156,-1.91382 -0.91143,-3.175 -0.33988,-1.26118 -0.91338,-2.93849 -1.27444,-3.72735 -0.36106,-0.78886 -0.65648,-1.6081 -0.65648,-1.82051 0,-0.46443 -3.60401,-8.32279 -4.11927,-8.98185 -0.19923,-0.25484 -0.7322,-1.21898 -1.18437,-2.14253 -0.45217,-0.92356 -1.11071,-1.94035 -1.46341,-2.25954 -0.3527,-0.31919 -0.64096,-0.91293 -0.64058,-1.31942 7.8e-4,-0.81886 7.86682,-9.38213 8.61823,-9.38213 0.68456,0 4.11139,5.33041 6.46364,10.05416 2.76801,5.55868 3.96743,8.20476 3.96743,8.75267 0,0.24572 0.3028,1.04069 0.6729,1.76661 0.37009,0.72591 0.86732,2.14854 1.10495,3.16139 0.23763,1.01286 0.59971,2.15906 0.80461,2.54711 0.20491,0.38806 0.56502,1.65806 0.80026,2.82222 0.23522,1.16417 0.68371,3.38667 0.99664,4.93889 0.31292,1.55222 0.73213,3.61597 0.93158,4.58611 1.0289,5.00465 1.00838,24.82551 -0.0282,27.26868 -0.1891,0.4457 -0.34382,1.1947 -0.34382,1.66447 0,1.14361 -1.90744,9.47613 -2.61332,11.41607 -0.30893,0.84901 -0.56169,1.79108 -0.56169,2.09348 0,0.3024 -0.29065,1.19525 -0.6459,1.98412 -0.35524,0.78886 -1.17226,2.78367 -1.81559,4.43291 -2.14664,5.50305 -6.47985,13.50731 -8.78512,16.22777 l -1.04628,1.23472 z m -88.71026,1.55883 c -0.80024,-1.00506 -1.45499,-1.97599 -1.45499,-2.15762 0,-0.18162 -0.3746,-0.83557 -0.83244,-1.45322 -0.70839,-0.95565 -3.08724,-5.67418 -5.54602,-11.00077 -1.00381,-2.17461 -3.72458,-10.62659 -4.37215,-13.58194 -0.31886,-1.45521 -0.80665,-3.51896 -1.08398,-4.58611 -0.81109,-3.12112 -1.21821,-9.06735 -1.21789,-17.78835 3.2e-4,-8.77381 0.42994,-14.95907 1.21481,-17.48943 0.27082,-0.87312 0.593,-2.38125 0.71595,-3.35139 0.22277,-1.75778 0.68086,-3.59888 1.22887,-4.93889 0.15869,-0.38805 0.88609,-2.53118 1.61644,-4.7625 0.73035,-2.23132 1.44314,-4.21569 1.58399,-4.40972 0.14084,-0.19403 0.37411,-0.74965 0.51837,-1.23472 0.35247,-1.18508 4.54003,-9.58795 5.39702,-10.8298 0.37509,-0.54354 1.26748,-1.90107 1.98309,-3.01673 0.88072,-1.37307 1.53187,-2.02847 2.01534,-2.02847 0.67352,0 3.63125,2.8991 7.3073,7.16246 l 1.46099,1.69441 -0.707,1.3042 c -0.38885,0.71732 -1.16586,2.09796 -1.72668,3.0681 -9.01938,15.60216 -12.33411,34.29901 -9.25641,52.21111 0.77926,4.53521 2.46771,10.99322 3.55102,13.58194 2.21648,5.29662 4.31133,9.70106 5.87337,12.34882 0.98256,1.66552 1.89425,3.30906 2.02597,3.65231 0.18059,0.47062 -0.74384,1.68144 -3.75877,4.92329 -2.19904,2.36456 -4.24192,4.34672 -4.53973,4.4048 -0.30776,0.06 -1.1695,-0.68314 -1.99647,-1.72178 z m 70.37087,-21.22619 c -2.74116,-2.9019 -4.08386,-4.58689 -4.08734,-5.12933 -0.003,-0.44429 0.33424,-1.47312 0.74908,-2.28629 1.50887,-2.95762 3.32643,-8.9747 4.18039,-13.83924 0.62679,-3.57052 0.3251,-14.38014 -0.49723,-17.81528 -0.83379,-3.48301 -2.39346,-8.16837 -3.52301,-10.58333 -0.49914,-1.06715 -0.90907,-2.28462 -0.91097,-2.70548 -0.005,-1.12375 7.70264,-9.34824 8.63495,-9.2139 0.50807,0.0732 1.26351,1.22739 2.72167,4.15827 1.11011,2.23132 2.17548,4.53319 2.36749,5.11528 0.192,0.58208 0.75742,2.24895 1.25648,3.70416 0.49907,1.45521 1.14863,3.75709 1.44348,5.11528 0.29485,1.35819 0.70613,3.18382 0.91396,4.05694 0.55572,2.3347 0.78993,14.82476 0.34398,18.34445 -0.95414,7.53066 -3.04507,14.42909 -6.29431,20.76632 -1.99248,3.88606 -2.46639,4.63368 -2.93728,4.63368 -0.15356,0 -2.11616,-1.94469 -4.36134,-4.32153 z m -51.43497,3.01414 c -0.82505,-0.93166 -3.92286,-7.58587 -5.13951,-11.03983 -0.95247,-2.70399 -1.65241,-5.22794 -2.59255,-9.34861 -0.17707,-0.77612 -0.42043,-4.66549 -0.54079,-8.64306 -0.23028,-7.61025 0.1923,-14.24733 1.11185,-17.4625 0.27746,-0.97014 0.76447,-2.71639 1.08224,-3.88056 1.25397,-4.59404 5.1283,-13.25061 6.46228,-14.43897 l 0.76406,-0.68065 4.04407,4.20842 c 2.22423,2.31464 4.13361,4.53153 4.24305,4.92643 0.11423,0.41217 -0.2323,1.6894 -0.81357,2.99861 -1.56769,3.53095 -3.12285,8.31509 -3.83762,11.80561 -0.85685,4.18435 -0.86512,14.12529 -0.0154,18.50921 0.71285,3.67784 2.4539,9.03802 3.81049,11.73142 0.55914,1.11013 1.01662,2.30949 1.01662,2.66524 0,0.76544 -7.61014,9.02771 -8.45396,9.17841 -0.31944,0.0571 -0.83301,-0.18108 -1.14126,-0.52917 z m 14.42749,-14.08627 c -0.40806,-0.40807 -0.29685,-35.68615 0.1133,-35.93964 0.1977,-0.12218 2.53927,0.92439 5.20347,2.32573 19.0233,10.00597 28.19427,14.91526 28.6108,15.31558 0.67389,0.64768 0.26683,0.88538 -17.41678,10.17054 -16.43039,8.62713 -16.14965,8.48892 -16.51079,8.12779 z"
         id="path91"
         inkscape:connector-curvature="0" />
      <path
         style="fill:#fda0a0;stroke-width:0.35277778"
         d="m 150.83769,228.20833 v -90.31111 h 90.31111 90.31111 v 90.31111 90.31111 H 241.1488 150.83769 Z m 178.68194,0 V 139.8375 H 241.1488 152.77797 l -0.0904,88.01805 c -0.0497,48.40993 -0.0149,88.21681 0.0774,88.45972 0.13387,0.35241 18.01151,0.42371 88.46122,0.35278 l 88.29344,-0.0889 z m -28.50359,69.23264 c -4.21602,-4.43745 -5.53946,-5.96377 -5.53946,-6.38864 0,-0.22039 0.54034,-1.15513 1.20077,-2.07721 2.62561,-3.66587 6.02564,-9.63298 8.47106,-14.86686 1.41514,-3.02878 2.69263,-5.90375 2.83886,-6.38882 0.14623,-0.48507 0.62489,-1.83444 1.06369,-2.99861 1.0572,-2.80478 2.48006,-7.33518 2.99152,-9.525 0.22659,-0.97014 0.55068,-2.31951 0.72021,-2.99861 1.12978,-4.52573 1.48254,-6.88107 2.19267,-14.64028 0.84789,-9.26435 0.13116,-21.53249 -1.80336,-30.86805 -0.62281,-3.00555 -2.03236,-8.29158 -2.39878,-8.99584 -0.20191,-0.38805 -0.4778,-1.31807 -0.61309,-2.0667 -0.13529,-0.74862 -0.53563,-2.01862 -0.88964,-2.82222 -0.35402,-0.80359 -1.00038,-2.41358 -1.43636,-3.57774 -2.12712,-5.67993 -6.0615,-13.13122 -10.45206,-19.79509 -1.03702,-1.57396 -1.88549,-3.04315 -1.88549,-3.26487 0,-0.67385 7.80792,-8.86643 8.45013,-8.86643 1.01627,0 2.56639,2.09822 6.90026,9.34008 2.81902,4.71056 6.77238,12.3303 7.69177,14.8252 0.28601,0.77611 0.87198,2.28423 1.30216,3.35138 2.72731,6.76572 5.12361,15.44891 6.32813,22.93056 0.23429,1.45521 0.57263,3.28083 0.75187,4.05694 0.65201,2.82324 1.02011,16.50052 0.66151,24.57966 -0.19227,4.33175 -0.44234,8.11402 -0.55571,8.40507 -0.11337,0.29104 -0.33462,1.40229 -0.49165,2.46944 -0.78588,5.34074 -1.16661,7.25524 -2.31511,11.64167 -3.02509,11.55358 -6.5516,20.05292 -12.80765,30.86805 -3.48012,6.01625 -6.64583,10.40695 -7.50346,10.40695 -0.15135,0 -1.44411,-1.23032 -2.87279,-2.73403 z m -125.73926,0.24178 c -3.64989,-4.68808 -10.6053,-17.15191 -13.07892,-23.43692 -0.38182,-0.97014 -1.02848,-2.55764 -1.43701,-3.52778 -0.40854,-0.97014 -1.38636,-3.98639 -2.17294,-6.70278 -0.78657,-2.71638 -1.66359,-5.73263 -1.94893,-6.70277 -0.52655,-1.79024 -1.70298,-7.99473 -2.30771,-12.17084 -0.36148,-2.49637 -1.08032,-13.81075 -1.07582,-16.93333 0.008,-5.65292 0.99409,-18.65423 1.52207,-20.07108 0.17313,-0.46458 0.47667,-2.05208 0.67454,-3.52777 0.19786,-1.47571 0.65942,-3.71497 1.02568,-4.97615 0.36626,-1.26118 1.25834,-4.35681 1.9824,-6.87917 1.3097,-4.56251 4.6479,-13.40188 5.62415,-14.89245 0.28145,-0.42973 0.51173,-0.94026 0.51173,-1.13451 0,-0.19425 1.24819,-2.62077 2.77376,-5.39227 4.41648,-8.02345 8.85633,-14.74049 9.74321,-14.74049 0.74176,0 8.29692,8.29324 8.29692,9.10745 0,0.39915 -0.67708,1.72795 -1.50462,2.95289 -2.15486,3.18965 -5.25461,8.44722 -7.03282,11.92855 -4.47432,8.75971 -8.58326,21.66036 -9.65774,30.32201 -0.2779,2.24015 -0.69396,4.62881 -0.92459,5.30813 -0.68855,2.02812 -0.57761,21.39566 0.14045,24.51847 0.3123,1.3582 0.67351,3.5807 0.8027,4.93889 0.39391,4.1416 3.30713,15.26192 5.17541,19.75556 0.40334,0.97013 1.12797,2.71638 1.61028,3.88055 2.74508,6.62583 5.59524,11.919 10.03367,18.63397 0.7465,1.12939 1.35726,2.36157 1.35726,2.73819 0,0.63379 -6.81723,8.25511 -7.95241,8.89039 -0.35318,0.19765 -0.98046,-0.34507 -2.18072,-1.88674 z m 106.64838,-20.6147 c -2.24441,-2.32833 -4.17157,-4.56157 -4.28259,-4.96274 -0.13489,-0.48744 0.21961,-1.36516 1.06862,-2.64583 1.65935,-2.50305 5.34547,-10.06516 6.43617,-13.20387 1.63413,-4.70257 2.64761,-8.12589 3.13362,-10.58478 0.26846,-1.35819 0.66008,-3.34257 0.87027,-4.40972 0.3493,-1.77346 1.05417,-9.99123 1.07419,-12.52361 0.0396,-5.01596 -1.39325,-16.28372 -2.48985,-19.57917 -0.16141,-0.48507 -0.57156,-1.91382 -0.91143,-3.175 -0.33988,-1.26118 -0.91338,-2.93849 -1.27444,-3.72735 -0.36106,-0.78886 -0.65648,-1.6081 -0.65648,-1.82051 0,-0.46443 -3.60401,-8.32279 -4.11927,-8.98185 -0.19923,-0.25484 -0.7322,-1.21898 -1.18437,-2.14253 -0.45217,-0.92356 -1.11071,-1.94035 -1.46341,-2.25954 -0.3527,-0.31919 -0.64096,-0.91293 -0.64058,-1.31942 7.8e-4,-0.81886 7.86682,-9.38213 8.61823,-9.38213 0.68456,0 4.11139,5.33041 6.46364,10.05416 2.76801,5.55868 3.96743,8.20476 3.96743,8.75267 0,0.24572 0.3028,1.04069 0.6729,1.76661 0.37009,0.72591 0.86732,2.14854 1.10495,3.16139 0.23763,1.01286 0.59971,2.15906 0.80461,2.54711 0.20491,0.38806 0.56502,1.65806 0.80026,2.82222 0.23522,1.16417 0.68371,3.38667 0.99664,4.93889 0.31292,1.55222 0.73213,3.61597 0.93158,4.58611 1.0289,5.00465 1.00838,24.82551 -0.0282,27.26868 -0.1891,0.4457 -0.34382,1.1947 -0.34382,1.66447 0,1.14361 -1.90744,9.47613 -2.61332,11.41607 -0.30893,0.84901 -0.56169,1.79108 -0.56169,2.09348 0,0.3024 -0.29065,1.19525 -0.6459,1.98412 -0.35524,0.78886 -1.17226,2.78367 -1.81559,4.43291 -2.14664,5.50305 -6.47985,13.50731 -8.78512,16.22777 l -1.04628,1.23472 z m -88.71026,1.55883 c -0.80024,-1.00506 -1.45499,-1.97599 -1.45499,-2.15762 0,-0.18162 -0.3746,-0.83557 -0.83244,-1.45322 -0.70839,-0.95565 -3.08724,-5.67418 -5.54602,-11.00077 -1.00381,-2.17461 -3.72458,-10.62659 -4.37215,-13.58194 -0.31886,-1.45521 -0.80665,-3.51896 -1.08398,-4.58611 -0.81109,-3.12112 -1.21821,-9.06735 -1.21789,-17.78835 3.2e-4,-8.77381 0.42994,-14.95907 1.21481,-17.48943 0.27082,-0.87312 0.593,-2.38125 0.71595,-3.35139 0.22277,-1.75778 0.68086,-3.59888 1.22887,-4.93889 0.15869,-0.38805 0.88609,-2.53118 1.61644,-4.7625 0.73035,-2.23132 1.44314,-4.21569 1.58399,-4.40972 0.14084,-0.19403 0.37411,-0.74965 0.51837,-1.23472 0.35247,-1.18508 4.54003,-9.58795 5.39702,-10.8298 0.37509,-0.54354 1.26748,-1.90107 1.98309,-3.01673 0.88072,-1.37307 1.53187,-2.02847 2.01534,-2.02847 0.67352,0 3.63125,2.8991 7.3073,7.16246 l 1.46099,1.69441 -0.707,1.3042 c -0.38885,0.71732 -1.16586,2.09796 -1.72668,3.0681 -9.01938,15.60216 -12.33411,34.29901 -9.25641,52.21111 0.77926,4.53521 2.46771,10.99322 3.55102,13.58194 2.21648,5.29662 4.31133,9.70106 5.87337,12.34882 0.98256,1.66552 1.89425,3.30906 2.02597,3.65231 0.18059,0.47062 -0.74384,1.68144 -3.75877,4.92329 -2.19904,2.36456 -4.24192,4.34672 -4.53973,4.4048 -0.30776,0.06 -1.1695,-0.68314 -1.99647,-1.72178 z m 70.37087,-21.22619 c -2.74116,-2.9019 -4.08386,-4.58689 -4.08734,-5.12933 -0.003,-0.44429 0.33424,-1.47312 0.74908,-2.28629 1.50887,-2.95762 3.32643,-8.9747 4.18039,-13.83924 0.62679,-3.57052 0.3251,-14.38014 -0.49723,-17.81528 -0.83379,-3.48301 -2.39346,-8.16837 -3.52301,-10.58333 -0.49914,-1.06715 -0.90907,-2.28462 -0.91097,-2.70548 -0.005,-1.12375 7.70264,-9.34824 8.63495,-9.2139 0.50807,0.0732 1.26351,1.22739 2.72167,4.15827 1.11011,2.23132 2.17548,4.53319 2.36749,5.11528 0.192,0.58208 0.75742,2.24895 1.25648,3.70416 0.49907,1.45521 1.14863,3.75709 1.44348,5.11528 0.29485,1.35819 0.70613,3.18382 0.91396,4.05694 0.55572,2.3347 0.78993,14.82476 0.34398,18.34445 -0.95414,7.53066 -3.04507,14.42909 -6.29431,20.76632 -1.99248,3.88606 -2.46639,4.63368 -2.93728,4.63368 -0.15356,0 -2.11616,-1.94469 -4.36134,-4.32153 z m -51.43497,3.01414 c -0.82505,-0.93166 -3.92286,-7.58587 -5.13951,-11.03983 -0.95247,-2.70399 -1.65241,-5.22794 -2.59255,-9.34861 -0.17707,-0.77612 -0.42043,-4.66549 -0.54079,-8.64306 -0.23028,-7.61025 0.1923,-14.24733 1.11185,-17.4625 0.27746,-0.97014 0.76447,-2.71639 1.08224,-3.88056 1.25397,-4.59404 5.1283,-13.25061 6.46228,-14.43897 l 0.76406,-0.68065 4.04407,4.20842 c 2.22423,2.31464 4.13361,4.53153 4.24305,4.92643 0.11423,0.41217 -0.2323,1.6894 -0.81357,2.99861 -1.56769,3.53095 -3.12285,8.31509 -3.83762,11.80561 -0.85685,4.18435 -0.86512,14.12529 -0.0154,18.50921 0.71285,3.67784 2.4539,9.03802 3.81049,11.73142 0.55914,1.11013 1.01662,2.30949 1.01662,2.66524 0,0.76544 -7.61014,9.02771 -8.45396,9.17841 -0.31944,0.0571 -0.83301,-0.18108 -1.14126,-0.52917 z m 14.42749,-14.08627 c -0.40806,-0.40807 -0.29685,-35.68615 0.1133,-35.93964 0.1977,-0.12218 2.53927,0.92439 5.20347,2.32573 19.0233,10.00597 28.19427,14.91526 28.6108,15.31558 0.67389,0.64768 0.26683,0.88538 -17.41678,10.17054 -16.43039,8.62713 -16.14965,8.48892 -16.51079,8.12779 z"
         id="path89"
         inkscape:connector-curvature="0" />
      <path
         style="fill:#fd7070;stroke-width:0.35277778"
         d="m 150.83769,228.20833 v -90.31111 h 90.31111 90.31111 v 90.31111 90.31111 H 241.1488 150.83769 Z m 178.68194,0 V 139.8375 H 241.1488 152.77797 l -0.0904,88.01805 c -0.0497,48.40993 -0.0149,88.21681 0.0774,88.45972 0.13387,0.35241 18.01151,0.42371 88.46122,0.35278 l 88.29344,-0.0889 z m -29.80972,67.57466 c -2.03729,-2.20523 -3.7512,-4.24001 -3.80869,-4.52172 -0.0575,-0.28172 0.51403,-1.44732 1.27004,-2.59022 4.26372,-6.44568 8.46904,-14.37281 10.74048,-20.24605 0.48776,-1.26118 1.3025,-3.35201 1.81055,-4.64628 0.50805,-1.29428 0.92381,-2.56428 0.92391,-2.82223 10e-5,-0.25794 0.29927,-1.26274 0.66483,-2.23288 0.36556,-0.97014 0.7742,-2.47827 0.90809,-3.35139 0.13389,-0.87313 0.46882,-2.2225 0.7443,-2.99861 0.27547,-0.77611 0.73787,-3.15736 1.02756,-5.29167 0.28968,-2.1343 0.67437,-4.59493 0.85487,-5.46805 0.933,-4.51309 0.74001,-23.2626 -0.28323,-27.51667 -0.21001,-0.87313 -0.60682,-3.175 -0.88179,-5.11528 -0.55172,-3.89315 -0.74905,-4.70508 -2.70071,-11.1125 -1.69903,-5.57803 -2.8618,-8.91807 -3.80717,-10.93611 -4.49725,-9.60005 -5.98976,-12.34658 -9.67905,-17.81151 -0.9155,-1.35612 -1.65927,-2.7055 -1.65284,-2.99861 0.006,-0.29312 1.811,-2.43517 4.01012,-4.76014 4.55145,-4.81188 4.10849,-4.73834 6.68454,-1.10975 6.73611,9.48841 13.55393,23.90486 16.62155,35.14668 0.34415,1.26118 0.8387,3.00743 1.09902,3.88055 0.26031,0.87313 0.64671,2.69875 0.85866,4.05695 0.21196,1.35819 0.61705,3.42194 0.90022,4.58611 1.16378,4.78465 1.96262,18.38243 1.54204,26.24868 -0.41379,7.7394 -0.98582,13.34772 -1.55062,15.20271 -0.26585,0.87312 -0.5848,2.46062 -0.70878,3.52777 -0.24909,2.1441 -2.09277,9.21956 -3.54128,13.59035 -3.29029,9.92823 -8.43131,20.37937 -14.49119,29.45907 -1.8211,2.72861 -2.83972,3.87549 -3.42403,3.85518 -0.23498,-0.008 -2.09411,-1.81914 -4.1314,-4.02438 z m -124.10353,2.01076 c -2.50918,-2.99783 -6.92684,-10.47314 -10.70538,-18.11507 -4.21775,-8.53021 -7.97969,-20.41125 -9.65103,-30.48007 -0.28986,-1.74625 -0.69685,-4.13096 -0.90443,-5.29935 -0.99984,-5.6277 -1.00094,-27.06484 -0.002,-31.56009 0.19481,-0.87634 0.59602,-3.10146 0.89157,-4.94473 1.27637,-7.96031 3.65372,-16.54117 6.67015,-24.07543 2.79271,-6.97548 10.13005,-20.54505 12.73371,-23.54957 0.42036,-0.48507 1.03498,-1.3185 1.36584,-1.85208 0.33085,-0.53358 0.82349,-0.97014 1.09475,-0.97014 0.46142,0 7.43147,7.19901 8.07445,8.33969 0.2031,0.36032 -0.29345,1.4119 -1.61053,3.41076 -2.91343,4.42154 -5.30078,8.54613 -7.08373,12.23844 -1.62446,3.3641 -1.81187,3.79234 -3.93686,8.99583 -1.97102,4.82646 -4.36407,13.35528 -5.14716,18.34445 -0.21318,1.35819 -0.54009,3.34257 -0.72647,4.40972 -2.08412,11.93325 -1.1522,29.32868 2.27737,42.50972 2.9908,11.49472 7.57982,21.68969 14.41494,32.02427 1.12639,1.70307 2.04797,3.24989 2.04797,3.43738 0,0.39877 -7.78264,8.81196 -8.15152,8.81196 -0.13719,0 -0.8806,-0.75406 -1.65201,-1.67569 z m 106.16981,-21.22406 c -2.16617,-2.3114 -3.9385,-4.50305 -3.9385,-4.87036 0,-0.3673 0.41284,-1.21459 0.91743,-1.88288 1.34464,-1.78086 5.86603,-11.29668 7.11452,-14.9734 1.65346,-4.8693 2.49829,-7.89333 2.90739,-10.40694 0.20526,-1.26118 0.61916,-3.40431 0.91976,-4.7625 0.65737,-2.9701 0.76244,-18.32607 0.14484,-21.16667 -0.21093,-0.97014 -0.61417,-3.18979 -0.89607,-4.93256 -0.28191,-1.74277 -0.74704,-3.8859 -1.03362,-4.7625 -0.28658,-0.87661 -1.10399,-3.41945 -1.81647,-5.65077 -1.3354,-4.18221 -5.14697,-12.35936 -7.13195,-15.30055 -0.61921,-0.91748 -1.12583,-1.94074 -1.12583,-2.27389 0,-0.73735 7.32422,-8.66436 8.14397,-8.81423 1.12741,-0.20611 6.87368,9.74875 9.42882,16.3345 0.82806,2.13431 1.65587,4.15289 1.83956,4.48575 0.32571,0.5902 1.19532,3.41735 2.25537,7.33231 1.25813,4.64656 1.98806,8.70608 2.32512,12.93134 0.1988,2.49214 0.53025,6.23203 0.73656,8.31086 0.20631,2.07884 0.28992,3.91754 0.1858,4.08601 -0.10412,0.16847 -0.43505,3.34548 -0.7354,7.06001 -0.49678,6.14383 -0.81511,8.06638 -2.43524,14.70761 -0.84023,3.44426 -2.01474,7.36588 -2.32207,7.75324 -0.15738,0.19836 -0.39993,0.75752 -0.53901,1.24259 -0.70025,2.44232 -5.61309,12.64403 -7.53959,15.6563 -1.32152,2.0663 -2.91541,4.09926 -3.21393,4.09926 -0.13913,0 -2.02528,-1.89114 -4.19146,-4.20253 z m -88.56996,1.63579 c -0.65973,-1.01364 -1.4939,-2.27411 -1.85371,-2.80104 -0.91236,-1.33613 -5.23705,-10.04212 -5.23705,-10.54264 0,-0.22576 -0.2912,-0.90546 -0.64711,-1.51044 -0.35591,-0.60499 -1.16754,-2.76685 -1.80362,-4.80414 -0.63609,-2.03729 -1.36184,-4.18042 -1.61278,-4.7625 -0.25095,-0.58208 -0.6456,-2.01083 -0.877,-3.175 -0.23141,-1.16417 -0.57056,-2.75167 -0.75367,-3.52778 -1.32616,-5.62098 -2.25459,-24.48252 -1.40656,-28.575 0.20103,-0.97014 0.5261,-3.11326 0.72238,-4.7625 0.19628,-1.64923 0.50581,-3.63361 0.68786,-4.40972 0.18204,-0.77611 0.5104,-2.36361 0.72969,-3.52778 0.21928,-1.16417 0.6159,-2.67229 0.88137,-3.35139 0.26547,-0.67909 0.91678,-2.58409 1.44735,-4.23333 1.81058,-5.62801 5.53144,-13.73139 7.93735,-17.28611 0.32831,-0.48507 1.18241,-1.79476 1.89802,-2.91042 0.7156,-1.11566 1.45496,-2.02847 1.643,-2.02847 0.53454,0 8.43983,8.40873 8.43983,8.97732 0,0.13261 -0.81592,1.61978 -1.81316,3.30481 -2.74065,4.63088 -7.35906,14.93409 -7.35906,16.41731 0,0.27083 -0.24954,1.18705 -0.55452,2.03607 -1.46499,4.07824 -2.98912,14.79666 -3.02869,21.29921 -0.014,2.29716 0.68575,10.77962 1.06218,12.87639 0.95652,5.32794 2.61676,11.6171 3.91136,14.81667 1.68663,4.16843 4.43269,9.83471 6.10275,12.5925 0.96294,1.59012 1.69499,3.04927 1.62678,3.24257 -0.30163,0.85469 -7.82244,8.50567 -8.35293,8.49749 -0.3248,-0.005 -1.13033,-0.83844 -1.79006,-1.85208 z m 70.66904,-20.86582 c -2.09677,-2.23397 -3.94285,-4.29504 -4.10242,-4.58016 -0.18305,-0.3271 0.048,-1.27507 0.62605,-2.56882 3.27872,-7.3379 4.47622,-12.71812 4.653,-20.9052 0.1139,-5.2752 0.0271,-6.63643 -0.60731,-9.525 -1.00118,-4.5585 -2.72433,-9.99319 -3.94561,-12.44417 -0.55315,-1.11013 -1.00574,-2.1807 -1.00574,-2.37905 0,-0.61679 7.87018,-8.83171 8.46109,-8.83171 1.4062,0 5.6146,9.67809 7.90017,18.16806 0.82436,3.06217 1.27851,8.19181 1.27152,14.36179 -0.0103,9.04995 -0.79091,13.8056 -3.57821,21.79793 -1.17608,3.3723 -4.84573,10.66384 -5.45948,10.84791 -0.22041,0.0661 -2.11629,-1.70761 -4.21306,-3.94158 z m -51.54493,2.90028 c -0.2975,-0.38048 -1.98303,-3.58122 -3.38468,-6.42736 -1.56772,-3.18332 -3.56703,-10.15465 -4.40906,-15.37369 -0.7228,-4.48011 -0.79999,-14.8773 -0.14535,-19.57917 0.5339,-3.83472 1.90433,-9.28088 3.2401,-12.87639 1.46493,-3.94317 4.60121,-10.1595 5.25163,-10.40909 0.78406,-0.30087 8.47124,7.77517 8.49415,8.92384 0.009,0.44429 -0.28045,1.39679 -0.64292,2.11667 -1.1012,2.18701 -3.10835,8.18619 -3.80175,11.36302 -0.52635,2.4115 -0.65274,4.48368 -0.64555,10.58334 0.008,7.02209 0.0783,7.85949 0.94412,11.28889 0.51434,2.03729 1.60092,5.29166 2.4146,7.23194 2.23906,5.33919 2.37112,4.70409 -1.94622,9.36 -3.71486,4.00618 -4.67515,4.68547 -5.36907,3.798 z m 14.35457,-31.85522 c 0,-10.7111 0.13046,-17.81528 0.32715,-17.81528 0.31527,0 31.08682,16.13342 32.78652,17.18988 0.69936,0.43469 0.7565,0.59251 0.35278,0.97454 -0.26495,0.25072 -5.08548,2.87303 -10.71228,5.82735 -5.62681,2.95431 -12.8731,6.78163 -16.10286,8.50514 -3.22977,1.7235 -6.04758,3.13365 -6.26181,3.13365 -0.27901,0 -0.3895,-5.05381 -0.3895,-17.81528 z"
         id="path87"
         inkscape:connector-curvature="0" />
      <path
         style="fill:#576ffe;stroke-width:0.35277778"
         d="m 150.83769,228.20833 v -90.31111 h 90.31111 90.31111 v 90.31111 90.31111 H 241.1488 150.83769 Z m 178.68194,0 V 139.8375 H 241.1488 152.77797 l -0.0904,88.01805 c -0.0497,48.40993 -0.0149,88.21681 0.0774,88.45972 0.13387,0.35241 18.01151,0.42371 88.46122,0.35278 l 88.29344,-0.0889 z m -29.45694,67.65576 c -1.84327,-1.99463 -3.55654,-3.88907 -3.80729,-4.20989 -0.38997,-0.49895 -0.21143,-0.94877 1.23473,-3.11086 0.92984,-1.39016 1.93473,-2.95331 2.2331,-3.47365 0.29836,-0.52035 1.00061,-1.66046 1.56055,-2.53358 1.49907,-2.33754 6.72909,-13.29133 7.35593,-15.40631 0.29739,-1.00341 0.72657,-2.17166 0.95374,-2.59613 0.52234,-0.97599 2.23447,-6.81585 3.51337,-11.98367 0.16806,-0.6791 0.46783,-1.86973 0.66616,-2.64584 0.19832,-0.77611 0.53986,-3.07017 0.75898,-5.09792 0.21912,-2.02775 0.57514,-4.01212 0.79116,-4.40972 0.58046,-1.06837 0.55868,-21.38147 -0.0252,-23.47708 -0.24326,-0.87312 -0.66395,-3.25437 -0.93487,-5.29167 -0.27092,-2.03729 -0.65535,-4.33916 -0.8543,-5.11527 -0.19895,-0.77611 -0.45575,-1.88736 -0.57066,-2.46945 -2.01168,-10.1901 -8.5033,-25.04088 -15.41041,-35.25414 -1.18038,-1.74538 -1.56778,-2.60412 -1.35274,-2.99861 0.16575,-0.30404 1.96144,-2.29905 3.99044,-4.43336 4.25182,-4.47249 3.77949,-4.45221 6.69625,-0.28742 5.44981,7.78168 11.69679,20.34531 14.61429,29.39159 2.57304,7.97817 4.51313,16.99366 5.42802,25.22361 0.4678,4.20817 0.46113,21.69483 -0.01,25.92917 -1.96814,17.69289 -7.24429,33.52583 -16.12321,48.38336 -3.48734,5.83555 -5.94395,9.28205 -6.69632,9.39461 -0.45105,0.0675 -1.72305,-1.05103 -4.01184,-3.52777 z m -124.55026,1.56268 c -1.61429,-2.1737 -5.49268,-8.34647 -6.87247,-10.93811 -3.02359,-5.67916 -4.83122,-9.42108 -6.16981,-12.772 -0.4263,-1.06715 -1.0026,-2.4765 -1.28068,-3.13189 -0.66922,-1.57726 -2.36356,-6.92996 -3.30786,-10.45005 -0.4164,-1.55222 -0.91382,-3.37785 -1.10539,-4.05695 -0.19156,-0.67909 -0.5772,-2.66347 -0.85697,-4.40972 -0.27977,-1.74625 -0.65218,-3.65125 -0.82757,-4.23333 -0.51668,-1.7147 -1.47767,-14.2458 -1.47444,-19.22639 0.003,-5.23943 1.01064,-18.52073 1.47262,-19.41758 0.15411,-0.29918 0.46049,-1.88668 0.68083,-3.52777 0.22034,-1.6411 0.64011,-3.77757 0.9328,-4.74771 0.2927,-0.97013 0.84804,-2.95451 1.23409,-4.40972 2.29171,-8.63854 5.31372,-16.1978 9.99471,-25.00076 2.20388,-4.14457 5.57847,-9.66639 6.71187,-10.98257 0.4177,-0.48507 1.03016,-1.31851 1.36102,-1.85208 0.33085,-0.53358 0.82254,-0.97014 1.09263,-0.97014 0.61575,0 7.95932,7.72419 7.95932,8.37185 0,0.26189 -0.29971,0.9063 -0.66603,1.43202 -4.28153,6.14462 -8.03533,13.0552 -10.96291,20.18224 -0.43836,1.06715 -1.01786,2.46251 -1.28778,3.10079 -0.88539,2.09373 -2.68641,7.82967 -3.84479,12.24504 -0.30542,1.16417 -0.79434,3.86292 -1.08649,5.99722 -0.29215,2.13431 -0.68997,4.35681 -0.88404,4.93889 -0.19407,0.58209 -0.53196,4.10925 -0.75087,7.83814 -0.41357,7.04459 -0.005,18.38696 0.77227,21.44242 0.19745,0.77611 0.58454,2.99861 0.86021,4.93889 0.71065,5.00191 3.03677,13.63229 4.84922,17.99166 0.40334,0.97014 1.12981,2.71639 1.61437,3.88056 2.51349,6.03867 5.5319,11.64706 9.50632,17.66329 1.03429,1.56564 1.88052,3.05144 1.88052,3.30178 0,0.57631 -7.35766,8.492 -7.89287,8.49149 -0.21857,-2.1e-4 -0.9619,-0.76049 -1.65183,-1.68951 z m 106.32083,-21.08491 c -2.10055,-2.24267 -3.87284,-4.22925 -3.93841,-4.41464 -0.0656,-0.18538 0.47241,-1.22841 1.19553,-2.31784 1.73643,-2.61604 5.32699,-9.90202 6.40765,-13.00244 1.33676,-3.83515 2.61919,-7.97358 2.95163,-9.525 1.88276,-8.78619 2.47535,-15.41234 2.05073,-22.93055 -0.24169,-4.27933 -1.23304,-11.09811 -2.02589,-13.93473 -0.18982,-0.67909 -0.59306,-2.10784 -0.89611,-3.175 -0.30304,-1.06715 -0.65212,-2.33715 -0.77574,-2.82222 -0.12362,-0.48507 -0.52444,-1.52738 -0.8907,-2.31624 -0.36626,-0.78886 -0.66593,-1.63581 -0.66593,-1.88211 0,-0.69762 -4.75709,-10.22184 -6.15591,-12.3248 -0.68883,-1.03558 -1.25242,-2.00658 -1.25242,-2.15777 0,-0.4621 7.75012,-8.65936 8.18701,-8.65936 1.24653,0 8.62685,13.56016 10.17624,18.69723 0.17556,0.58208 0.64002,1.68721 1.03214,2.45584 0.39212,0.76863 0.71991,1.72113 0.72842,2.11666 0.009,0.39554 0.261,1.35416 0.56108,2.13027 0.54694,1.41462 0.97859,3.20707 2.03891,8.46667 0.31292,1.55222 0.73214,3.61597 0.93159,4.58611 1.00041,4.86611 1.01292,21.38945 0.02,26.45833 -0.19003,0.97014 -0.60862,3.03389 -0.9302,4.58612 -0.32158,1.55222 -0.72485,3.53659 -0.89617,4.40972 -0.58413,2.97708 -2.71364,9.39115 -4.62641,13.93472 -0.95793,2.27545 -1.86686,4.12658 -4.33049,8.81944 -1.48856,2.83552 -4.21367,6.84637 -4.66325,6.86344 -0.22778,0.009 -2.13278,-1.81918 -4.23333,-4.06185 z m -88.52052,1.69633 c -0.71891,-1.11566 -1.66516,-2.5841 -2.10277,-3.26319 -0.68019,-1.05553 -3.15693,-6.0874 -5.4697,-11.1125 -0.3572,-0.77611 -1.22402,-3.15736 -1.92627,-5.29167 -0.70224,-2.13431 -1.40855,-4.19806 -1.56958,-4.58611 -0.16102,-0.38806 -0.55427,-1.97556 -0.87388,-3.52778 -0.31962,-1.55222 -0.80799,-3.69535 -1.08527,-4.7625 -0.83094,-3.198 -1.22538,-8.73961 -1.22506,-17.21175 3.2e-4,-8.65531 0.43312,-14.84035 1.2148,-17.36047 0.27083,-0.87313 0.59464,-2.38125 0.71959,-3.35139 0.20967,-1.62801 0.5968,-3.16698 1.24235,-4.93889 0.14139,-0.38805 0.86105,-2.53118 1.59926,-4.7625 1.47541,-4.45959 3.99919,-10.28508 5.97486,-13.79139 2.23488,-3.96636 4.31953,-7.17096 4.90511,-7.54033 0.46284,-0.29196 1.25406,0.36086 4.26537,3.51927 2.03341,2.13275 3.79016,4.20527 3.90389,4.60561 0.14031,0.49389 -0.32842,1.62793 -1.4581,3.52778 -4.42104,7.43501 -7.88601,16.35074 -9.17715,23.61378 -0.27594,1.55223 -0.67324,3.5366 -0.8829,4.40973 -1.00301,4.17704 -1.02874,21.01689 -0.0361,23.63611 0.18383,0.48507 0.44485,1.83444 0.58004,2.99861 0.72489,6.2424 5.45709,18.81468 9.559,25.39592 0.86822,1.39301 1.57858,2.73658 1.57858,2.98573 0,0.73269 -7.43754,8.8364 -8.11,8.8364 -0.17542,0 -0.90715,-0.91281 -1.62606,-2.02847 z M 263.72658,256.983 c -2.03729,-2.21767 -3.74931,-4.24897 -3.8045,-4.51402 -0.0552,-0.26503 0.31868,-1.42679 0.8308,-2.58168 1.92803,-4.34797 2.65304,-6.79383 4.23018,-14.27064 0.78094,-3.70229 0.55812,-11.6211 -0.46655,-16.58055 -0.83324,-4.03288 -2.45963,-9.01918 -3.81278,-11.6895 -0.47174,-0.93093 -0.85244,-1.97569 -0.846,-2.32169 0.006,-0.346 1.83083,-2.53409 4.05419,-4.86242 4.72127,-4.94417 4.14955,-5.00593 6.89879,0.74524 2.29306,4.79689 3.9921,9.59424 4.85863,13.71865 0.20382,0.97013 0.57664,2.71638 0.82849,3.88055 0.29908,1.38248 0.45791,4.86988 0.45791,10.05417 0,9.7255 -0.46393,12.52167 -3.59974,21.69583 -1.37452,4.02128 -4.69236,10.54009 -5.43105,10.67076 -0.27181,0.0481 -2.16108,-1.72703 -4.19837,-3.9447 z m -51.22183,3.06352 c -0.44048,-0.51194 -1.8038,-3.02395 -3.14232,-5.78994 -0.404,-0.83486 -2.29683,-5.8837 -2.75593,-7.35103 -1.6483,-5.2682 -2.18609,-8.76257 -2.38889,-15.52222 -0.24323,-8.10691 0.22112,-13.76882 1.51168,-18.43249 0.49669,-1.79484 1.02939,-3.73959 1.18379,-4.32168 0.96989,-3.6564 5.37591,-12.87639 6.15333,-12.87639 0.55207,0 8.08311,7.88294 8.25902,8.64493 0.0597,0.25867 -0.29892,1.27448 -0.79698,2.25734 -1.14006,2.24979 -3.36692,8.44486 -3.3726,9.38246 -0.002,0.38805 -0.31802,1.97555 -0.70149,3.52777 -0.55131,2.23159 -0.69488,4.0035 -0.68603,8.46667 0.006,3.10445 0.14777,6.27945 0.31469,7.05556 0.16692,0.77611 0.48591,2.36361 0.70887,3.52777 0.57258,2.98977 1.99084,7.31653 3.39864,10.36844 0.66149,1.43402 1.20271,2.74272 1.20271,2.90821 0,0.35696 -7.79886,8.77197 -8.12969,8.77197 -0.12519,0 -0.46665,-0.27782 -0.7588,-0.61737 z m 14.3418,-14.64027 c -0.34534,-0.90117 0.0113,-34.24782 0.36753,-34.36515 0.47984,-0.15804 32.71344,16.90059 32.76631,17.34055 0.0231,0.19234 -1.94235,1.39722 -4.3677,2.67751 -2.42535,1.28028 -9.70945,5.13135 -16.18691,8.55793 -6.47744,3.42657 -11.91961,6.23013 -12.0937,6.23013 -0.1741,0 -0.39258,-0.19844 -0.48553,-0.44097 z"
         id="path85"
         inkscape:connector-curvature="0" />
      <path
         style="fill:#fd4e4e;stroke-width:0.35277778"
         d="m 150.83769,228.20833 v -90.31111 h 90.31111 90.31111 v 90.31111 90.31111 H 241.1488 150.83769 Z m 179.03472,0 V 139.48472 H 241.1488 152.42519 l -0.0904,88.37083 c -0.0497,48.60396 -0.0149,88.56958 0.0774,88.8125 0.13386,0.35241 18.08205,0.4237 88.81399,0.35278 l 88.64622,-0.0889 z m -29.80972,67.65576 c -1.84327,-1.99463 -3.55654,-3.88907 -3.80729,-4.20989 -0.38997,-0.49895 -0.21143,-0.94877 1.23473,-3.11086 0.92984,-1.39016 1.93473,-2.95331 2.2331,-3.47365 0.29836,-0.52035 1.00061,-1.66046 1.56055,-2.53358 1.49907,-2.33754 6.72909,-13.29133 7.35593,-15.40631 0.29739,-1.00341 0.72657,-2.17166 0.95374,-2.59613 0.52234,-0.97599 2.23447,-6.81585 3.51337,-11.98367 0.16806,-0.6791 0.46783,-1.86973 0.66616,-2.64584 0.19832,-0.77611 0.53986,-3.07017 0.75898,-5.09792 0.21912,-2.02775 0.57514,-4.01212 0.79116,-4.40972 0.58046,-1.06837 0.55868,-21.38147 -0.0252,-23.47708 -0.24326,-0.87312 -0.66395,-3.25437 -0.93487,-5.29167 -0.27092,-2.03729 -0.65535,-4.33916 -0.8543,-5.11527 -0.19895,-0.77611 -0.45575,-1.88736 -0.57066,-2.46945 -2.01168,-10.1901 -8.5033,-25.04088 -15.41041,-35.25414 -1.18038,-1.74538 -1.56778,-2.60412 -1.35274,-2.99861 0.16575,-0.30404 1.96144,-2.29905 3.99044,-4.43336 4.25182,-4.47249 3.77949,-4.45221 6.69625,-0.28742 5.44981,7.78168 11.69679,20.34531 14.61429,29.39159 2.57304,7.97817 4.51313,16.99366 5.42802,25.22361 0.4678,4.20817 0.46113,21.69483 -0.01,25.92917 -1.96814,17.69289 -7.24429,33.52583 -16.12321,48.38336 -3.48734,5.83555 -5.94395,9.28205 -6.69632,9.39461 -0.45105,0.0675 -1.72305,-1.05103 -4.01184,-3.52777 z m -124.55026,1.56268 c -1.61429,-2.1737 -5.49268,-8.34647 -6.87247,-10.93811 -3.02359,-5.67916 -4.83122,-9.42108 -6.16981,-12.772 -0.4263,-1.06715 -1.0026,-2.4765 -1.28068,-3.13189 -0.66922,-1.57726 -2.36356,-6.92996 -3.30786,-10.45005 -0.4164,-1.55222 -0.91382,-3.37785 -1.10539,-4.05695 -0.19156,-0.67909 -0.5772,-2.66347 -0.85697,-4.40972 -0.27977,-1.74625 -0.65218,-3.65125 -0.82757,-4.23333 -0.51668,-1.7147 -1.47767,-14.2458 -1.47444,-19.22639 0.003,-5.23943 1.01064,-18.52073 1.47262,-19.41758 0.15411,-0.29918 0.46049,-1.88668 0.68083,-3.52777 0.22034,-1.6411 0.64011,-3.77757 0.9328,-4.74771 0.2927,-0.97013 0.84804,-2.95451 1.23409,-4.40972 2.29171,-8.63854 5.31372,-16.1978 9.99471,-25.00076 2.20388,-4.14457 5.57847,-9.66639 6.71187,-10.98257 0.4177,-0.48507 1.03016,-1.31851 1.36102,-1.85208 0.33085,-0.53358 0.82254,-0.97014 1.09263,-0.97014 0.61575,0 7.95932,7.72419 7.95932,8.37185 0,0.26189 -0.29971,0.9063 -0.66603,1.43202 -4.28153,6.14462 -8.03533,13.0552 -10.96291,20.18224 -0.43836,1.06715 -1.01786,2.46251 -1.28778,3.10079 -0.88539,2.09373 -2.68641,7.82967 -3.84479,12.24504 -0.30542,1.16417 -0.79434,3.86292 -1.08649,5.99722 -0.29215,2.13431 -0.68997,4.35681 -0.88404,4.93889 -0.19407,0.58209 -0.53196,4.10925 -0.75087,7.83814 -0.41357,7.04459 -0.005,18.38696 0.77227,21.44242 0.19745,0.77611 0.58454,2.99861 0.86021,4.93889 0.71065,5.00191 3.03677,13.63229 4.84922,17.99166 0.40334,0.97014 1.12981,2.71639 1.61437,3.88056 2.51349,6.03867 5.5319,11.64706 9.50632,17.66329 1.03429,1.56564 1.88052,3.05144 1.88052,3.30178 0,0.57631 -7.35766,8.492 -7.89287,8.49149 -0.21857,-2.1e-4 -0.9619,-0.76049 -1.65183,-1.68951 z m 106.32083,-21.08491 c -2.10055,-2.24267 -3.87284,-4.22925 -3.93841,-4.41464 -0.0656,-0.18538 0.47241,-1.22841 1.19553,-2.31784 1.73643,-2.61604 5.32699,-9.90202 6.40765,-13.00244 1.33676,-3.83515 2.61919,-7.97358 2.95163,-9.525 1.88276,-8.78619 2.47535,-15.41234 2.05073,-22.93055 -0.24169,-4.27933 -1.23304,-11.09811 -2.02589,-13.93473 -0.18982,-0.67909 -0.59306,-2.10784 -0.89611,-3.175 -0.30304,-1.06715 -0.65212,-2.33715 -0.77574,-2.82222 -0.12362,-0.48507 -0.52444,-1.52738 -0.8907,-2.31624 -0.36626,-0.78886 -0.66593,-1.63581 -0.66593,-1.88211 0,-0.69762 -4.75709,-10.22184 -6.15591,-12.3248 -0.68883,-1.03558 -1.25242,-2.00658 -1.25242,-2.15777 0,-0.4621 7.75012,-8.65936 8.18701,-8.65936 1.24653,0 8.62685,13.56016 10.17624,18.69723 0.17556,0.58208 0.64002,1.68721 1.03214,2.45584 0.39212,0.76863 0.71991,1.72113 0.72842,2.11666 0.009,0.39554 0.261,1.35416 0.56108,2.13027 0.54694,1.41462 0.97859,3.20707 2.03891,8.46667 0.31292,1.55222 0.73214,3.61597 0.93159,4.58611 1.00041,4.86611 1.01292,21.38945 0.02,26.45833 -0.19003,0.97014 -0.60862,3.03389 -0.9302,4.58612 -0.32158,1.55222 -0.72485,3.53659 -0.89617,4.40972 -0.58413,2.97708 -2.71364,9.39115 -4.62641,13.93472 -0.95793,2.27545 -1.86686,4.12658 -4.33049,8.81944 -1.48856,2.83552 -4.21367,6.84637 -4.66325,6.86344 -0.22778,0.009 -2.13278,-1.81918 -4.23333,-4.06185 z m -88.52052,1.69633 c -0.71891,-1.11566 -1.66516,-2.5841 -2.10277,-3.26319 -0.68019,-1.05553 -3.15693,-6.0874 -5.4697,-11.1125 -0.3572,-0.77611 -1.22402,-3.15736 -1.92627,-5.29167 -0.70224,-2.13431 -1.40855,-4.19806 -1.56958,-4.58611 -0.16102,-0.38806 -0.55427,-1.97556 -0.87388,-3.52778 -0.31962,-1.55222 -0.80799,-3.69535 -1.08527,-4.7625 -0.83094,-3.198 -1.22538,-8.73961 -1.22506,-17.21175 3.2e-4,-8.65531 0.43312,-14.84035 1.2148,-17.36047 0.27083,-0.87313 0.59464,-2.38125 0.71959,-3.35139 0.20967,-1.62801 0.5968,-3.16698 1.24235,-4.93889 0.14139,-0.38805 0.86105,-2.53118 1.59926,-4.7625 1.47541,-4.45959 3.99919,-10.28508 5.97486,-13.79139 2.23488,-3.96636 4.31953,-7.17096 4.90511,-7.54033 0.46284,-0.29196 1.25406,0.36086 4.26537,3.51927 2.03341,2.13275 3.79016,4.20527 3.90389,4.60561 0.14031,0.49389 -0.32842,1.62793 -1.4581,3.52778 -4.42104,7.43501 -7.88601,16.35074 -9.17715,23.61378 -0.27594,1.55223 -0.67324,3.5366 -0.8829,4.40973 -1.00301,4.17704 -1.02874,21.01689 -0.0361,23.63611 0.18383,0.48507 0.44485,1.83444 0.58004,2.99861 0.72489,6.2424 5.45709,18.81468 9.559,25.39592 0.86822,1.39301 1.57858,2.73658 1.57858,2.98573 0,0.73269 -7.43754,8.8364 -8.11,8.8364 -0.17542,0 -0.90715,-0.91281 -1.62606,-2.02847 z M 263.72658,256.983 c -2.03729,-2.21767 -3.74931,-4.24897 -3.8045,-4.51402 -0.0552,-0.26503 0.31868,-1.42679 0.8308,-2.58168 1.92803,-4.34797 2.65304,-6.79383 4.23018,-14.27064 0.78094,-3.70229 0.55812,-11.6211 -0.46655,-16.58055 -0.83324,-4.03288 -2.45963,-9.01918 -3.81278,-11.6895 -0.47174,-0.93093 -0.85244,-1.97569 -0.846,-2.32169 0.006,-0.346 1.83083,-2.53409 4.05419,-4.86242 4.72127,-4.94417 4.14955,-5.00593 6.89879,0.74524 2.29306,4.79689 3.9921,9.59424 4.85863,13.71865 0.20382,0.97013 0.57664,2.71638 0.82849,3.88055 0.29908,1.38248 0.45791,4.86988 0.45791,10.05417 0,9.7255 -0.46393,12.52167 -3.59974,21.69583 -1.37452,4.02128 -4.69236,10.54009 -5.43105,10.67076 -0.27181,0.0481 -2.16108,-1.72703 -4.19837,-3.9447 z m -51.22183,3.06352 c -0.44048,-0.51194 -1.8038,-3.02395 -3.14232,-5.78994 -0.404,-0.83486 -2.29683,-5.8837 -2.75593,-7.35103 -1.6483,-5.2682 -2.18609,-8.76257 -2.38889,-15.52222 -0.24323,-8.10691 0.22112,-13.76882 1.51168,-18.43249 0.49669,-1.79484 1.02939,-3.73959 1.18379,-4.32168 0.96989,-3.6564 5.37591,-12.87639 6.15333,-12.87639 0.55207,0 8.08311,7.88294 8.25902,8.64493 0.0597,0.25867 -0.29892,1.27448 -0.79698,2.25734 -1.14006,2.24979 -3.36692,8.44486 -3.3726,9.38246 -0.002,0.38805 -0.31802,1.97555 -0.70149,3.52777 -0.55131,2.23159 -0.69488,4.0035 -0.68603,8.46667 0.006,3.10445 0.14777,6.27945 0.31469,7.05556 0.16692,0.77611 0.48591,2.36361 0.70887,3.52777 0.57258,2.98977 1.99084,7.31653 3.39864,10.36844 0.66149,1.43402 1.20271,2.74272 1.20271,2.90821 0,0.35696 -7.79886,8.77197 -8.12969,8.77197 -0.12519,0 -0.46665,-0.27782 -0.7588,-0.61737 z m 14.3418,-14.64027 c -0.34534,-0.90117 0.0113,-34.24782 0.36753,-34.36515 0.47984,-0.15804 32.71344,16.90059 32.76631,17.34055 0.0231,0.19234 -1.94235,1.39722 -4.3677,2.67751 -2.42535,1.28028 -9.70945,5.13135 -16.18691,8.55793 -6.47744,3.42657 -11.91961,6.23013 -12.0937,6.23013 -0.1741,0 -0.39258,-0.19844 -0.48553,-0.44097 z"
         id="path83"
         inkscape:connector-curvature="0" />
      <path
         style="fill:#fd2f2f;stroke-width:0.35277778"
         d="m 150.83769,228.20833 v -90.31111 h 90.31111 90.31111 v 90.31111 90.31111 H 241.1488 150.83769 Z m 179.03472,0 V 139.48472 H 241.1488 152.42519 l -0.0904,88.37083 c -0.0497,48.60396 -0.0149,88.56958 0.0774,88.8125 0.13386,0.35241 18.08205,0.4237 88.81399,0.35278 l 88.64622,-0.0889 z m -29.95012,67.25088 c -2.05709,-2.20563 -3.74016,-4.17191 -3.74016,-4.36952 0,-0.19761 0.67469,-1.33834 1.49931,-2.53496 0.82462,-1.19662 1.8168,-2.70536 2.20486,-3.35275 2.6032,-4.34295 3.32296,-5.65167 4.64542,-8.44663 0.81583,-1.72421 1.65216,-3.30377 1.85853,-3.51014 0.20637,-0.20637 0.37522,-0.58791 0.37522,-0.84788 0,-0.25997 0.32374,-1.10725 0.71942,-1.88285 0.39569,-0.77561 1.01774,-2.3171 1.38234,-3.42553 0.36461,-1.10844 0.97995,-2.88847 1.36743,-3.95562 1.35561,-3.73344 2.52803,-7.74424 2.52803,-8.64826 0,-0.50148 0.22387,-1.3447 0.49749,-1.87382 0.27362,-0.52913 0.74607,-2.86281 1.04988,-5.18596 0.30381,-2.32315 0.73434,-5.01765 0.95674,-5.98779 0.25352,-1.10594 0.41481,-5.84321 0.4324,-12.7 0.0229,-8.93034 -0.0786,-11.42138 -0.55345,-13.58195 -0.31982,-1.45521 -0.76603,-4.15396 -0.99159,-5.99722 -0.22556,-1.84326 -0.55259,-3.62073 -0.72673,-3.94992 -0.17415,-0.32919 -0.5414,-1.77327 -0.81611,-3.20905 -0.27471,-1.43579 -0.74991,-3.2099 -1.056,-3.94247 -0.30608,-0.73257 -0.55652,-1.5541 -0.55652,-1.82563 0,-0.53287 -1.93098,-5.691 -3.4147,-9.12154 -3.11558,-7.20357 -5.11531,-10.92712 -9.51856,-17.72381 -1.03588,-1.59893 -1.88341,-3.04808 -1.88341,-3.22033 0,-0.55328 7.10541,-7.97977 7.73902,-8.08873 0.57026,-0.0981 2.67846,2.5857 4.74743,6.04357 0.36761,0.61439 1.25876,2.06958 1.98032,3.23374 3.92587,6.33401 8.89986,17.43171 11.22616,25.04723 1.69285,5.54181 2.83432,10.06043 3.07454,12.17083 0.12147,1.06715 0.43731,2.65465 0.70187,3.52778 0.52935,1.74702 1.22233,9.19157 1.22233,13.13129 0,1.38024 0.18038,3.54534 0.40084,4.81133 0.29474,1.6925 0.29896,3.19428 0.016,5.67334 -0.21168,1.85435 -0.55362,6.16051 -0.75987,9.56926 -0.20624,3.40875 -0.53832,6.7425 -0.73796,7.40833 -0.19963,0.66584 -0.59759,2.63936 -0.88434,4.38561 -0.28675,1.74625 -0.73665,3.88938 -0.99979,4.7625 -0.26314,0.87313 -0.76132,2.61938 -1.10708,3.88056 -0.72875,2.6582 -2.58581,8.16991 -3.65499,10.84792 -0.40669,1.01864 -1.03445,2.60614 -1.39503,3.52777 -0.36057,0.92163 -1.14826,2.6282 -1.75041,3.79236 -0.60216,1.16417 -1.4231,2.81551 -1.82433,3.66965 -2.3478,4.99803 -9.36017,15.90952 -10.22441,15.90952 -0.15948,0 -1.97303,-1.8046 -4.03012,-4.01023 z M 176.36824,298.247 c -0.36285,-0.51606 -0.99372,-1.36494 -1.40195,-1.8864 -1.84612,-2.35817 -9.66471,-15.83539 -9.66471,-16.65945 0,-0.20067 -0.23028,-0.71647 -0.51174,-1.1462 -0.28146,-0.42974 -1.37087,-2.92447 -2.42091,-5.54384 -1.70623,-4.25625 -2.37246,-6.28778 -4.85903,-14.81667 -2.59618,-8.9049 -4.03196,-23.67653 -3.47179,-35.71875 0.89798,-19.30409 5.13162,-34.55499 14.42035,-51.94653 2.10515,-3.94152 6.12903,-10.3111 7.57731,-11.99444 l 1.21407,-1.41111 3.46267,3.67268 c 4.96888,5.27022 4.72415,4.49341 2.48562,7.89005 -4.18576,6.35127 -7.37889,12.13118 -9.0087,16.30671 -0.37867,0.97014 -1.25353,3.13752 -1.94414,4.81639 -3.35954,8.16702 -5.66142,18.22513 -6.64841,29.05028 -1.02114,11.19976 -0.0205,24.2612 2.69332,35.15517 1.60733,6.45228 2.52805,9.18109 5.63582,16.70316 2.0526,4.96816 5.42963,11.15013 9.29607,17.01732 l 1.91516,2.90621 -2.12876,2.38546 c -1.17082,1.312 -2.99541,3.23433 -4.05465,4.27185 l -1.92589,1.88641 z m 106.6436,-20.91437 c -3.56144,-3.69414 -4.82137,-5.17784 -4.82137,-5.67768 0,-0.2048 0.50665,-1.12307 1.12588,-2.04061 1.96793,-2.91591 5.45814,-10.41154 6.96595,-14.96018 0.80169,-2.41847 1.61972,-4.87347 1.81784,-5.45555 0.19812,-0.58209 0.6675,-2.72521 1.04305,-4.7625 0.37556,-2.03729 0.85229,-4.49792 1.05941,-5.46806 0.4977,-2.33118 0.49331,-18.18455 -0.006,-20.46111 -0.21263,-0.97014 -0.62128,-3.27201 -0.90812,-5.11528 -0.28683,-1.84326 -0.66463,-3.68495 -0.83956,-4.09265 -0.17493,-0.40769 -0.67214,-2.07457 -1.10492,-3.70417 -0.43279,-1.62959 -0.90251,-3.12165 -1.04384,-3.31568 -0.14133,-0.19402 -0.45545,-0.98777 -0.69803,-1.76389 -0.67762,-2.16789 -4.70573,-10.35434 -6.13625,-12.47086 -0.70166,-1.03815 -1.2699,-2.1494 -1.26276,-2.46945 0.0182,-0.81469 7.52941,-8.69622 8.00659,-8.40131 1.36998,0.8467 6.66258,10.46743 8.95936,16.28607 0.76588,1.94028 1.54265,3.79938 1.72617,4.13135 0.33056,0.59797 1.3901,4.1097 2.26597,7.51032 1.80301,7.00021 2.66504,12.97527 2.66504,18.47234 0,1.48444 0.16366,3.25356 0.36369,3.93137 0.24469,0.82916 0.24996,1.92497 0.0161,3.34906 -0.19117,1.16417 -0.505,4.49792 -0.69739,7.40834 -0.1924,2.91041 -0.68354,6.79979 -1.09143,8.64305 -1.66893,7.54191 -3.83164,14.43418 -5.64403,17.98675 -0.38944,0.76336 -0.70806,1.54509 -0.70806,1.73717 0,0.86909 -7.45017,13.78997 -7.95129,13.78997 -0.0695,0 -1.46558,-1.38906 -3.10234,-3.08681 z m -89.6991,0.35278 c -0.71891,-1.11566 -1.66719,-2.58409 -2.10727,-3.26319 -0.4401,-0.6791 -1.69821,-3.13972 -2.79581,-5.46806 -1.0976,-2.32833 -2.21068,-4.6638 -2.47351,-5.18992 -0.26283,-0.52613 -1.04403,-2.66925 -1.736,-4.7625 -0.69197,-2.09325 -1.43149,-4.28216 -1.64336,-4.86424 -0.21188,-0.58209 -0.68919,-2.5431 -1.06071,-4.3578 -0.37151,-1.81471 -0.76178,-3.43911 -0.86726,-3.60978 -1.06156,-1.71764 -2.02114,-22.78697 -1.25186,-27.48659 0.20645,-1.26118 0.52193,-3.48368 0.70108,-4.93889 0.43546,-3.53719 1.74436,-9.7982 2.32312,-11.1125 0.25633,-0.58208 1.05933,-2.92736 1.78445,-5.21173 0.72512,-2.28437 1.45598,-4.23842 1.62413,-4.34235 0.16815,-0.10392 0.30573,-0.43156 0.30573,-0.72809 0,-0.64444 4.43222,-9.58257 5.74724,-11.59005 2.43995,-3.72474 3.10805,-4.46636 3.63192,-4.03159 0.27824,0.23092 2.1055,2.14106 4.06058,4.24476 4.0685,4.37779 3.95091,3.29251 0.93249,8.60627 -1.46415,2.57755 -3.93606,7.8232 -5.56904,11.81806 -0.35691,0.87312 -1.05661,3.09562 -1.5549,4.93889 -0.8561,3.1669 -1.07036,4.11855 -1.98567,8.81944 -0.39177,2.01209 -1.07573,10.27499 -1.08044,13.05278 -0.004,2.59978 0.69195,10.96489 1.08659,13.05278 0.86123,4.55651 1.4175,6.97433 1.93782,8.42282 0.30498,0.84902 0.55452,1.76524 0.55452,2.03607 0,1.5241 5.14577,12.94987 7.62002,16.91965 0.99238,1.5922 1.50484,2.7562 1.33659,3.0359 -0.63198,1.05053 -7.4048,8.03802 -7.79123,8.03817 -0.23216,9e-5 -1.01031,-0.91265 -1.72922,-2.02831 z m 70.72198,-20.6375 c -2.03606,-2.18281 -3.80967,-4.14915 -3.94136,-4.36964 -0.13169,-0.22049 0.25066,-1.48177 0.84966,-2.80284 1.39152,-3.06893 2.66016,-6.82004 3.14813,-9.3084 0.21051,-1.07346 0.62703,-2.99899 0.92559,-4.27895 0.74694,-3.20214 0.51122,-14.22332 -0.38029,-17.78114 -0.92186,-3.67891 -2.67523,-8.89836 -3.78213,-11.25867 -0.62484,-1.33237 -0.87339,-2.27421 -0.68773,-2.60598 0.72755,-1.30004 7.32124,-8.12958 7.79332,-8.07205 0.61012,0.0743 3.34571,5.35243 4.94759,9.54593 2.86264,7.49402 3.87417,13.44116 3.86896,22.7469 -0.005,8.25658 -0.74852,12.8729 -3.37112,20.91982 -0.93763,2.87695 -4.98381,11.23377 -5.43913,11.23377 -0.12626,0 -1.89543,-1.78593 -3.93149,-3.96875 z m -52.59983,1.05834 c -0.632,-1.21268 -1.208,-2.36361 -1.28001,-2.55764 -0.072,-0.19403 -0.41494,-0.98778 -0.76207,-1.76389 -2.05844,-4.60235 -3.90579,-11.01824 -4.64088,-16.11789 -0.61998,-4.3011 -0.54129,-14.86382 0.14536,-19.51267 0.61908,-4.19134 1.82315,-8.87487 3.21964,-12.52361 1.13241,-2.95873 4.29201,-9.38147 4.75629,-9.66841 0.32422,-0.20038 4.95468,4.32078 7.24452,7.07351 1.1352,1.36467 1.14497,1.82494 0.0835,3.92955 -1.01547,2.01333 -2.7118,7.05071 -3.58967,10.6598 -0.82123,3.37623 -1.13108,14.43304 -0.51393,18.33904 0.63137,3.99593 1.66115,7.57463 3.24999,11.29429 0.78734,1.84326 1.45064,3.77078 1.474,4.28338 0.0329,0.72261 -0.77611,1.81233 -3.60133,4.85069 -2.0041,2.15529 -3.86712,3.91871 -4.14006,3.91871 -0.27294,0 -1.01334,-0.99219 -1.64532,-2.20486 z m 15.6028,-29.68039 c 0,-12.64681 0.10608,-17.15086 0.40393,-17.15086 0.34599,0 23.6021,12.13664 30.25817,15.79079 2.04074,1.12035 2.20175,1.2878 1.6361,1.70141 -0.99151,0.72502 -30.83914,16.42798 -31.60775,16.62897 -0.67842,0.17742 -0.69045,-0.11823 -0.69045,-16.97031 z"
         id="path81"
         inkscape:connector-curvature="0" />
      <path
         style="fill:#062afe;stroke-width:0.35277778"
         d="m 150.83769,228.20833 v -90.31111 h 90.31111 90.31111 v 90.31111 90.31111 H 241.1488 150.83769 Z m 179.03472,0 V 139.48472 H 241.1488 152.42519 l -0.0904,88.37083 c -0.0497,48.60396 -0.0149,88.56958 0.0774,88.8125 0.13386,0.35241 18.08205,0.4237 88.81399,0.35278 l 88.64622,-0.0889 z m -29.75885,67.08252 c -1.96826,-2.11789 -3.57865,-4.01039 -3.57865,-4.20558 0,-0.19518 0.67469,-1.34026 1.49931,-2.54462 0.82461,-1.20436 1.60461,-2.37338 1.73332,-2.59783 0.1287,-0.22446 0.94551,-1.59873 1.81512,-3.05394 1.799,-3.01046 5.73939,-11.12758 6.93574,-14.28749 0.44076,-1.16417 1.092,-2.83105 1.44719,-3.70417 0.82411,-2.02581 2.67291,-8.11138 3.16162,-10.40695 0.20654,-0.97013 0.53037,-2.39888 0.71961,-3.175 0.18925,-0.77611 0.50954,-2.60173 0.71175,-4.05694 0.20221,-1.45521 0.52848,-3.51896 0.72504,-4.58611 0.70122,-3.80702 1.0307,-11.2238 0.81355,-18.31361 -0.1213,-3.96061 -0.35425,-7.55277 -0.51766,-7.98257 -0.16342,-0.42981 -0.48415,-2.42806 -0.71275,-4.44056 -0.2286,-2.0125 -0.65289,-4.53222 -0.94287,-5.59937 -0.28997,-1.06715 -0.65673,-2.67175 -0.81501,-3.56577 -0.46739,-2.63986 -3.98565,-13.13887 -5.48437,-16.36618 -4.21378,-9.07382 -5.11666,-10.73979 -9.20652,-16.98786 -1.03569,-1.58221 -1.88307,-3.02791 -1.88307,-3.21267 0,-0.42922 6.72473,-7.63441 7.2541,-7.77238 1.00592,-0.26217 5.91543,7.26453 10.36425,15.88928 3.40657,6.60419 6.92474,15.54461 8.57269,21.78502 1.72025,6.5142 2.62134,11.07461 3.10189,15.69861 0.20164,1.94028 0.53735,4.29433 0.746,5.23122 0.50425,2.2641 0.50893,20.76998 0.006,23.03477 -0.21016,0.94607 -0.54315,3.30762 -0.73997,5.2479 -0.94464,9.3121 -3.35238,18.29699 -7.92727,29.58196 -2.12048,5.23061 -2.89088,6.73777 -7.5098,14.69165 -3.13076,5.39123 -5.69822,9.21249 -6.33164,9.42362 -0.20832,0.0694 -1.98916,-1.60655 -3.95742,-3.72443 z m -123.99221,2.23302 c -0.51448,-0.7732 -1.23397,-1.80269 -1.59887,-2.28776 -0.3649,-0.48507 -1.35856,-1.99858 -2.20815,-3.36334 -0.84958,-1.36477 -1.73948,-2.79352 -1.97756,-3.175 -0.53822,-0.86244 -1.49355,-2.69326 -4.2276,-8.10194 -3.09341,-6.11957 -6.14229,-14.03546 -7.47318,-19.40278 -0.19244,-0.77611 -0.50391,-1.96673 -0.69214,-2.64583 -1.13185,-4.08339 -1.44279,-5.49999 -1.97456,-8.99583 -0.32466,-2.13431 -0.74499,-4.59494 -0.93407,-5.46806 -0.63281,-2.92223 -0.96764,-15.45034 -0.626,-23.42299 0.18204,-4.2484 0.41828,-7.8656 0.52496,-8.03823 0.19036,-0.308 0.48069,-2.07076 1.20961,-7.34434 0.20114,-1.4552 0.5045,-3.0427 0.67414,-3.52777 0.16964,-0.48507 0.81697,-2.78695 1.43852,-5.11528 2.35581,-8.82498 4.7254,-14.99705 8.72425,-22.72404 3.99495,-7.71944 9.57872,-16.47245 10.32287,-16.18191 0.36932,0.1442 7.40079,7.67406 7.40079,7.92536 0,0.11543 -0.84848,1.49765 -1.8855,3.07162 -2.62916,3.99046 -5.07992,8.04433 -5.70813,9.44197 -0.29193,0.64949 -0.67678,1.41901 -0.85522,1.71006 -0.37799,0.61651 -1.67944,3.50849 -2.937,6.52638 -0.48511,1.16417 -1.21627,2.91042 -1.6248,3.88056 -1.94052,4.60813 -4.09324,12.62102 -4.8336,17.99167 -0.29422,2.1343 -0.69373,4.3568 -0.8878,4.93888 -0.19407,0.58209 -0.53191,4.10837 -0.75076,7.83619 -0.41578,7.08223 0.004,19.15323 0.77032,22.14993 0.19846,0.77611 0.58639,2.99861 0.86205,4.93888 0.78732,5.54152 2.96511,13.28054 5.39843,19.18397 0.68942,1.67257 1.4602,3.59666 1.71285,4.27576 0.58352,1.56842 4.09223,8.42358 5.36333,10.47862 0.53136,0.85907 1.95829,3.08031 3.17097,4.93609 1.21267,1.85578 2.20486,3.47701 2.20486,3.60271 0,0.12572 -1.72071,2.0474 -3.8238,4.27042 l -3.8238,4.04185 z m 107.27536,-20.19466 c -1.44931,-1.50183 -3.23659,-3.41028 -3.97174,-4.241 l -1.33665,-1.5104 0.72599,-0.78266 c 0.39929,-0.43046 1.13632,-1.55974 1.63784,-2.50952 0.50152,-0.94977 1.04129,-1.90227 1.19948,-2.11666 0.49064,-0.66492 3.6472,-7.69404 4.37323,-9.73842 3.94166,-11.09905 5.47002,-21.35392 4.83713,-32.45555 -0.25288,-4.4357 -1.23591,-11.25324 -2.03472,-14.11111 -0.18981,-0.6791 -0.59305,-2.10785 -0.8961,-3.175 -0.30304,-1.06716 -0.65213,-2.33716 -0.77575,-2.82223 -0.12362,-0.48507 -0.52443,-1.52738 -0.89069,-2.31624 -0.36626,-0.78886 -0.66593,-1.60852 -0.66593,-1.82147 0,-0.68351 -4.54273,-9.83803 -5.83431,-11.75731 -0.68637,-1.01995 -1.32665,-1.98178 -1.42283,-2.13741 -0.18579,-0.30062 7.17129,-8.4259 7.62927,-8.4259 0.91725,0 7.23377,11.51968 9.28495,16.93333 0.55137,1.45521 1.22097,3.063 1.48801,3.57286 0.26704,0.50987 0.66607,1.77987 0.88673,2.82223 0.22067,1.04235 0.60125,2.29207 0.84576,2.77714 0.2445,0.48507 0.55652,1.59632 0.69338,2.46944 0.13685,0.87313 0.5446,2.77813 0.90609,4.23333 1.8535,7.4613 2.29023,19.72947 1.08004,30.33889 -0.6279,5.50458 -3.21437,16.21489 -4.64864,19.24958 -0.37284,0.78886 -0.6779,1.60447 -0.6779,1.81247 0,1.49178 -6.85811,14.67858 -9.18029,17.65189 l -0.61725,0.79033 z m -89.86197,0.17981 c -0.64142,-1.01864 -1.52833,-2.4077 -1.97091,-3.0868 -0.44258,-0.6791 -1.71019,-3.13972 -2.81691,-5.46806 -1.10672,-2.32833 -2.24806,-4.70958 -2.53632,-5.29166 -0.28825,-0.58209 -1.15412,-2.96334 -1.92414,-5.29167 -0.77002,-2.32833 -1.53377,-4.55083 -1.69721,-4.93889 -0.16344,-0.38805 -0.38343,-1.1818 -0.48887,-1.76389 -0.10544,-0.58208 -0.44418,-2.16958 -0.75276,-3.52778 -0.61736,-2.71732 -1.02448,-5.15975 -1.61708,-9.70138 -0.4633,-3.55069 -0.22339,-22.55343 0.30508,-24.16528 0.19085,-0.58209 0.53248,-2.09021 0.75918,-3.35139 0.58663,-3.26347 1.45558,-7.11139 1.79247,-7.9375 0.15826,-0.38806 0.87618,-2.53118 1.59539,-4.7625 1.59623,-4.95222 2.20892,-6.40949 4.97105,-11.82364 2.07702,-4.07124 2.86237,-5.40757 4.95518,-8.43158 l 0.95615,-1.3816 3.80251,4.02743 c 2.09138,2.2151 3.80835,4.1552 3.81549,4.31135 0.007,0.15615 -0.63369,1.34677 -1.42407,2.64583 -4.38937,7.21433 -8.06598,16.59339 -9.36156,23.88138 -0.27594,1.55222 -0.67324,3.53659 -0.8829,4.40972 -1.00914,4.20255 -1.03608,21.71714 -0.0375,24.34166 0.18457,0.48507 0.4458,1.83445 0.58051,2.99862 0.7157,6.18503 5.46608,18.76447 9.62033,25.47555 0.96877,1.56501 1.47045,2.71966 1.30286,2.99861 -0.58849,0.97954 -7.03932,7.67708 -7.39824,7.68119 -0.20986,0.002 -0.90636,-0.82907 -1.54778,-1.84772 z m 70.68515,-20.6375 c -1.94324,-2.08579 -3.6457,-3.98007 -3.78322,-4.2095 -0.13753,-0.22942 0.1653,-1.34067 0.67295,-2.46944 1.76645,-3.92774 2.83745,-7.32328 3.9298,-12.45925 0.90329,-4.24706 0.82215,-14.35317 -0.15294,-19.05 -0.78245,-3.76891 -2.54167,-9.07408 -3.99877,-12.05891 l -0.80645,-1.65196 2.49788,-2.75776 c 1.37384,-1.51677 3.13992,-3.37883 3.92462,-4.13791 l 1.42675,-1.38016 0.70852,0.85099 c 0.38968,0.46804 0.7138,0.95716 0.72025,1.08692 0.006,0.12977 0.70096,1.71727 1.54333,3.52778 2.74345,5.89648 4.17665,10.60531 5.08208,16.6974 0.95588,6.43151 0.67668,17.78126 -0.56478,22.95895 -1.4492,6.04409 -2.94185,10.2147 -5.44262,15.20713 -1.0023,2.00095 -1.91277,3.63809 -2.02328,3.63809 -0.11052,0 -1.79087,-1.70657 -3.73412,-3.79237 z m -52.83785,0.34898 c -0.75248,-1.50162 -1.56357,-3.1271 -1.80242,-3.61217 -0.94835,-1.92597 -2.31041,-6.0068 -3.17917,-9.525 -0.50308,-2.03729 -1.07622,-4.25979 -1.27366,-4.93889 -0.19743,-0.6791 -0.44531,-4.40972 -0.55085,-8.29028 -0.27814,-10.22773 0.60082,-16.13331 3.67543,-24.69444 0.86853,-2.41839 4.1053,-9.25332 4.64248,-9.8033 0.24971,-0.25566 3.72221,3.12194 6.8796,6.6916 l 1.30413,1.47441 -0.87753,1.73172 c -0.48264,0.95245 -1.21941,2.74658 -1.63726,3.98695 -0.41785,1.24037 -0.90897,2.53408 -1.09138,2.87491 -0.1824,0.34083 -0.55415,1.77259 -0.8261,3.1817 -0.27195,1.4091 -0.65738,3.27638 -0.85651,4.14951 -0.44036,1.93086 -0.47079,12.96483 -0.0418,15.16944 1.29394,6.65023 2.06531,9.20573 4.19941,13.91239 l 1.06942,2.35857 -3.72201,4.03536 c -2.0471,2.21944 -3.90687,4.03364 -4.1328,4.03155 -0.22594,-0.002 -1.02646,-1.23241 -1.77894,-2.73403 z m 15.85107,-12.00101 c -0.37368,-0.37367 -0.21311,-33.18637 0.16353,-33.41914 0.30334,-0.18748 9.3929,4.47522 27.65825,14.18791 2.11856,1.12656 3.90027,2.206 3.95936,2.39876 0.0591,0.19276 -5.47884,3.28735 -12.30652,6.87687 -6.82767,3.58951 -13.95863,7.34193 -15.84658,8.3387 -1.88794,0.99678 -3.52056,1.72438 -3.62804,1.6169 z"
         id="path79"
         inkscape:connector-curvature="0" />
      <path
         style="fill:#fd0101;stroke-width:0.35277778"
         d="m 300.11356,295.29085 c -1.96826,-2.11789 -3.57865,-4.01039 -3.57865,-4.20558 0,-0.19518 0.67469,-1.34026 1.49931,-2.54462 0.82461,-1.20436 1.60461,-2.37338 1.73332,-2.59783 0.1287,-0.22446 0.94551,-1.59873 1.81512,-3.05394 1.799,-3.01046 5.73939,-11.12758 6.93574,-14.28749 0.44076,-1.16417 1.092,-2.83105 1.44719,-3.70417 0.82411,-2.02581 2.67291,-8.11138 3.16162,-10.40695 0.20654,-0.97013 0.53037,-2.39888 0.71961,-3.175 0.18925,-0.77611 0.50954,-2.60173 0.71175,-4.05694 0.20221,-1.45521 0.52848,-3.51896 0.72504,-4.58611 0.70122,-3.80702 1.0307,-11.2238 0.81355,-18.31361 -0.1213,-3.96061 -0.35425,-7.55277 -0.51766,-7.98257 -0.16342,-0.42981 -0.48415,-2.42806 -0.71275,-4.44056 -0.2286,-2.0125 -0.65289,-4.53222 -0.94287,-5.59937 -0.28997,-1.06715 -0.65673,-2.67175 -0.81501,-3.56577 -0.46739,-2.63986 -3.98565,-13.13887 -5.48437,-16.36618 -4.21378,-9.07382 -5.11666,-10.73979 -9.20652,-16.98786 -1.03569,-1.58221 -1.88307,-3.02791 -1.88307,-3.21267 0,-0.42922 6.72473,-7.63441 7.2541,-7.77238 1.00592,-0.26217 5.91543,7.26453 10.36425,15.88928 3.40657,6.60419 6.92474,15.54461 8.57269,21.78502 1.72025,6.5142 2.62134,11.07461 3.10189,15.69861 0.20164,1.94028 0.53735,4.29433 0.746,5.23122 0.50425,2.2641 0.50893,20.76998 0.006,23.03477 -0.21016,0.94607 -0.54315,3.30762 -0.73997,5.2479 -0.94464,9.3121 -3.35238,18.29699 -7.92727,29.58196 -2.12048,5.23061 -2.89088,6.73777 -7.5098,14.69165 -3.13076,5.39123 -5.69822,9.21249 -6.33164,9.42362 -0.20832,0.0694 -1.98916,-1.60655 -3.95742,-3.72443 z m -123.99221,2.23302 c -0.51448,-0.7732 -1.23397,-1.80269 -1.59887,-2.28776 -0.3649,-0.48507 -1.35856,-1.99858 -2.20815,-3.36334 -0.84958,-1.36477 -1.73948,-2.79352 -1.97756,-3.175 -0.53822,-0.86244 -1.49355,-2.69326 -4.2276,-8.10194 -3.09341,-6.11957 -6.14229,-14.03546 -7.47318,-19.40278 -0.19244,-0.77611 -0.50391,-1.96673 -0.69214,-2.64583 -1.13185,-4.08339 -1.44279,-5.49999 -1.97456,-8.99583 -0.32466,-2.13431 -0.74499,-4.59494 -0.93407,-5.46806 -0.63281,-2.92223 -0.96764,-15.45034 -0.626,-23.42299 0.18204,-4.2484 0.41828,-7.8656 0.52496,-8.03823 0.19036,-0.308 0.48069,-2.07076 1.20961,-7.34434 0.20114,-1.4552 0.5045,-3.0427 0.67414,-3.52777 0.16964,-0.48507 0.81697,-2.78695 1.43852,-5.11528 2.35581,-8.82498 4.7254,-14.99705 8.72425,-22.72404 3.99495,-7.71944 9.57872,-16.47245 10.32287,-16.18191 0.36932,0.1442 7.40079,7.67406 7.40079,7.92536 0,0.11543 -0.84848,1.49765 -1.8855,3.07162 -2.62916,3.99046 -5.07992,8.04433 -5.70813,9.44197 -0.29193,0.64949 -0.67678,1.41901 -0.85522,1.71006 -0.37799,0.61651 -1.67944,3.50849 -2.937,6.52638 -0.48511,1.16417 -1.21627,2.91042 -1.6248,3.88056 -1.94052,4.60813 -4.09324,12.62102 -4.8336,17.99167 -0.29422,2.1343 -0.69373,4.3568 -0.8878,4.93888 -0.19407,0.58209 -0.53191,4.10837 -0.75076,7.83619 -0.41578,7.08223 0.004,19.15323 0.77032,22.14993 0.19846,0.77611 0.58639,2.99861 0.86205,4.93888 0.78732,5.54152 2.96511,13.28054 5.39843,19.18397 0.68942,1.67257 1.4602,3.59666 1.71285,4.27576 0.58352,1.56842 4.09223,8.42358 5.36333,10.47862 0.53136,0.85907 1.95829,3.08031 3.17097,4.93609 1.21267,1.85578 2.20486,3.47701 2.20486,3.60271 0,0.12572 -1.72071,2.0474 -3.8238,4.27042 l -3.8238,4.04185 z m 107.27536,-20.19466 c -1.44931,-1.50183 -3.23659,-3.41028 -3.97174,-4.241 l -1.33665,-1.5104 0.72599,-0.78266 c 0.39929,-0.43046 1.13632,-1.55974 1.63784,-2.50952 0.50152,-0.94977 1.04129,-1.90227 1.19948,-2.11666 0.49064,-0.66492 3.6472,-7.69404 4.37323,-9.73842 3.94166,-11.09905 5.47002,-21.35392 4.83713,-32.45555 -0.25288,-4.4357 -1.23591,-11.25324 -2.03472,-14.11111 -0.18981,-0.6791 -0.59305,-2.10785 -0.8961,-3.175 -0.30304,-1.06716 -0.65213,-2.33716 -0.77575,-2.82223 -0.12362,-0.48507 -0.52443,-1.52738 -0.89069,-2.31624 -0.36626,-0.78886 -0.66593,-1.60852 -0.66593,-1.82147 0,-0.68351 -4.54273,-9.83803 -5.83431,-11.75731 -0.68637,-1.01995 -1.32665,-1.98178 -1.42283,-2.13741 -0.18579,-0.30062 7.17129,-8.4259 7.62927,-8.4259 0.91725,0 7.23377,11.51968 9.28495,16.93333 0.55137,1.45521 1.22097,3.063 1.48801,3.57286 0.26704,0.50987 0.66607,1.77987 0.88673,2.82223 0.22067,1.04235 0.60125,2.29207 0.84576,2.77714 0.2445,0.48507 0.55652,1.59632 0.69338,2.46944 0.13685,0.87313 0.5446,2.77813 0.90609,4.23333 1.8535,7.4613 2.29023,19.72947 1.08004,30.33889 -0.6279,5.50458 -3.21437,16.21489 -4.64864,19.24958 -0.37284,0.78886 -0.6779,1.60447 -0.6779,1.81247 0,1.49178 -6.85811,14.67858 -9.18029,17.65189 l -0.61725,0.79033 z m -89.86197,0.17981 c -0.64142,-1.01864 -1.52833,-2.4077 -1.97091,-3.0868 -0.44258,-0.6791 -1.71019,-3.13972 -2.81691,-5.46806 -1.10672,-2.32833 -2.24806,-4.70958 -2.53632,-5.29166 -0.28825,-0.58209 -1.15412,-2.96334 -1.92414,-5.29167 -0.77002,-2.32833 -1.53377,-4.55083 -1.69721,-4.93889 -0.16344,-0.38805 -0.38343,-1.1818 -0.48887,-1.76389 -0.10544,-0.58208 -0.44418,-2.16958 -0.75276,-3.52778 -0.61736,-2.71732 -1.02448,-5.15975 -1.61708,-9.70138 -0.4633,-3.55069 -0.22339,-22.55343 0.30508,-24.16528 0.19085,-0.58209 0.53248,-2.09021 0.75918,-3.35139 0.58663,-3.26347 1.45558,-7.11139 1.79247,-7.9375 0.15826,-0.38806 0.87618,-2.53118 1.59539,-4.7625 1.59623,-4.95222 2.20892,-6.40949 4.97105,-11.82364 2.07702,-4.07124 2.86237,-5.40757 4.95518,-8.43158 l 0.95615,-1.3816 3.80251,4.02743 c 2.09138,2.2151 3.80835,4.1552 3.81549,4.31135 0.007,0.15615 -0.63369,1.34677 -1.42407,2.64583 -4.38937,7.21433 -8.06598,16.59339 -9.36156,23.88138 -0.27594,1.55222 -0.67324,3.53659 -0.8829,4.40972 -1.00914,4.20255 -1.03608,21.71714 -0.0375,24.34166 0.18457,0.48507 0.4458,1.83445 0.58051,2.99862 0.7157,6.18503 5.46608,18.76447 9.62033,25.47555 0.96877,1.56501 1.47045,2.71966 1.30286,2.99861 -0.58849,0.97954 -7.03932,7.67708 -7.39824,7.68119 -0.20986,0.002 -0.90636,-0.82907 -1.54778,-1.84772 z m 70.68515,-20.6375 c -1.94324,-2.08579 -3.6457,-3.98007 -3.78322,-4.2095 -0.13753,-0.22942 0.1653,-1.34067 0.67295,-2.46944 1.76645,-3.92774 2.83745,-7.32328 3.9298,-12.45925 0.90329,-4.24706 0.82215,-14.35317 -0.15294,-19.05 -0.78245,-3.76891 -2.54167,-9.07408 -3.99877,-12.05891 l -0.80645,-1.65196 2.49788,-2.75776 c 1.37384,-1.51677 3.13992,-3.37883 3.92462,-4.13791 l 1.42675,-1.38016 0.70852,0.85099 c 0.38968,0.46804 0.7138,0.95716 0.72025,1.08692 0.006,0.12977 0.70096,1.71727 1.54333,3.52778 2.74345,5.89648 4.17665,10.60531 5.08208,16.6974 0.95588,6.43151 0.67668,17.78126 -0.56478,22.95895 -1.4492,6.04409 -2.94185,10.2147 -5.44262,15.20713 -1.0023,2.00095 -1.91277,3.63809 -2.02328,3.63809 -0.11052,0 -1.79087,-1.70657 -3.73412,-3.79237 z m -52.83785,0.34898 c -0.75248,-1.50162 -1.56357,-3.1271 -1.80242,-3.61217 -0.94835,-1.92597 -2.31041,-6.0068 -3.17917,-9.525 -0.50308,-2.03729 -1.07622,-4.25979 -1.27366,-4.93889 -0.19743,-0.6791 -0.44531,-4.40972 -0.55085,-8.29028 -0.27814,-10.22773 0.60082,-16.13331 3.67543,-24.69444 0.86853,-2.41839 4.1053,-9.25332 4.64248,-9.8033 0.24971,-0.25566 3.72221,3.12194 6.8796,6.6916 l 1.30413,1.47441 -0.87753,1.73172 c -0.48264,0.95245 -1.21941,2.74658 -1.63726,3.98695 -0.41785,1.24037 -0.90897,2.53408 -1.09138,2.87491 -0.1824,0.34083 -0.55415,1.77259 -0.8261,3.1817 -0.27195,1.4091 -0.65738,3.27638 -0.85651,4.14951 -0.44036,1.93086 -0.47079,12.96483 -0.0418,15.16944 1.29394,6.65023 2.06531,9.20573 4.19941,13.91239 l 1.06942,2.35857 -3.72201,4.03536 c -2.0471,2.21944 -3.90687,4.03364 -4.1328,4.03155 -0.22594,-0.002 -1.02646,-1.23241 -1.77894,-2.73403 z m 15.85107,-12.00101 c -0.37368,-0.37367 -0.21311,-33.18637 0.16353,-33.41914 0.30334,-0.18748 9.3929,4.47522 27.65825,14.18791 2.11856,1.12656 3.90027,2.206 3.95936,2.39876 0.0591,0.19276 -5.47884,3.28735 -12.30652,6.87687 -6.82767,3.58951 -13.95863,7.34193 -15.84658,8.3387 -1.88794,0.99678 -3.52056,1.72438 -3.62804,1.6169 z"
         id="path77"
         inkscape:connector-curvature="0" />
    </g>
  </g>
</svg>
